<?xml version="1.0" encoding="UTF-8"?>
<svg id="Layer_1" xmlns="http://www.w3.org/2000/svg" version="1.1" viewBox="0 0 1146.1 912.5">
  <!-- Generator: Adobe Illustrator 30.1.0, SVG Export Plug-In . SVG Version: 2.1.1 Build 136)  -->
  <defs>
    <style>
      .st0 {
        font-size: 17.01px;
      }

      .st0, .st1, .st2, .st3, .st4, .st5, .st6, .st7, .st8, .st9 {
        isolation: isolate;
      }

      .st0, .st1, .st2, .st3, .st4, .st6, .st7, .st8, .st9 {
        font-family: LucidaSans, 'Lucida Sans';
      }

      .st1 {
        font-size: 10px;
      }

      .st10 {
        fill: #ff7e7e;
      }

      .st2 {
        font-size: 72px;
      }

      .st3 {
        font-size: 14.88px;
      }

      .st4 {
        font-size: 8.5px;
      }

      .st11, .st12, .st13 {
        fill: #fff;
      }

      .st14 {
        fill: #ffe57e;
      }

      .st15 {
        display: none;
        fill: #a9a9d9;
      }

      .st16 {
        fill: #ffb57e;
      }

      .st17, .st18 {
        fill: none;
      }

      .st19 {
        fill: #d6beff;
      }

      .st12, .st18 {
        stroke-miterlimit: 10;
      }

      .st12, .st18, .st13 {
        stroke: #000;
        stroke-width: 2px;
      }

      .st20 {
        fill: #88aeff;
      }

      .st6 {
        font-size: 12.67px;
      }

      .st7 {
        font-size: 12.76px;
      }

      .st13 {
        stroke-linejoin: round;
      }

      .st8 {
        font-size: 18px;
      }

      .st21 {
        fill: #a8ffbe;
      }

      .st9 {
        font-size: 17px;
      }
    </style>
  </defs>
  <rect class="st15" x="-43.8" y="-7.1" width="1920" height="1080"/>
  <g id="Layer_4">
    <path class="st20" d="M904,795.33h216.1c1.7,0,3,1.3,3,3v26c0,1.7-1.3,3-3,3h-216.1c-1.7,0-3-1.3-3-3v-26c0-1.7,1.3-3,3-3Z"/>
    <path class="st10" d="M904,667.33h216.1c1.7,0,3,1.3,3,3v26c0,1.7-1.3,3-3,3h-216.1c-1.7,0-3-1.3-3-3v-26c0-1.7,1.3-3,3-3Z"/>
    <path class="st21" d="M904,763.33h216.1c1.7,0,3,1.3,3,3v26c0,1.7-1.3,3-3,3h-216.1c-1.7,0-3-1.3-3-3v-26c0-1.7,1.3-3,3-3Z"/>
    <path class="st16" d="M904,699.33h216.1c1.7,0,3,1.3,3,3v26c0,1.7-1.3,3-3,3h-216.1c-1.7,0-3-1.3-3-3v-26c0-1.7,1.3-3,3-3Z"/>
    <path class="st19" d="M904,827.33h216.1c1.7,0,3,1.3,3,3v26c0,1.7-1.3,3-3,3h-216.1c-1.7,0-3-1.3-3-3v-26c0-1.7,1.3-3,3-3Z"/>
    <path class="st14" d="M904,731.33h216.1c1.7,0,3,1.3,3,3v26c0,1.7-1.3,3-3,3h-216.1c-1.7,0-3-1.3-3-3v-26c0-1.7,1.3-3,3-3Z"/>
    <path class="st11" d="M904,859.33h216.1c1.7,0,3,1.3,3,3v26c0,1.7-1.3,3-3,3h-216.1c-1.7,0-3-1.3-3-3v-26c0-1.7,1.3-3,3-3Z"/>
    <path class="st18" d="M904,667.33h216.1c1.7,0,3,1.5,3,3.5v217c0,2-1.3,3.5-3,3.5h-216.1c-1.7,0-3-1.5-3-3.5v-217c0-2,1.3-3.5,3-3.5Z"/>
    <path class="st17" d="M911.5,674.93h90.2c1.7,0,3,1.3,3,3v10.6c0,1.7-1.3,3-3,3h-90.2c-1.7,0-3-1.3-3-3v-10.6c0-1.7,1.3-3,3-3Z"/>
    <g class="st5">
      <g class="st5">
        <text class="st8" transform="translate(908.51 689.81)"><tspan x="0" y="0">Lived here</tspan></text>
      </g>
    </g>
    <path class="st17" d="M912.1,707.13h117.9c1.7,0,3,1.3,3,3v10.6c0,1.7-1.3,3-3,3h-117.9c-1.7,0-3-1.3-3-3v-10.6c0-1.7,1.3-3,3-3Z"/>
    <g class="st5">
      <g class="st5">
        <text class="st8" transform="translate(909.05 721.93)"><tspan x="0" y="0">Stayed here</tspan></text>
      </g>
    </g>
    <path class="st17" d="M912.5,739.13h117.9c1.7,0,3,1.3,3,3v10.6c0,1.7-1.3,3-3,3h-117.9c-1.7,0-3-1.3-3-3v-10.6c0-1.7,1.3-3,3-3Z"/>
    <g class="st5">
      <g class="st5">
        <text class="st8" transform="translate(909.51 753.92)"><tspan x="0" y="0">Visited here</tspan></text>
      </g>
    </g>
    <path class="st17" d="M911.5,771.13h117.9c1.7,0,3,1.3,3,3v10.6c0,1.7-1.3,3-3,3h-117.9c-1.7,0-3-1.3-3-3v-10.6c0-1.7,1.3-3,3-3Z"/>
    <g class="st5">
      <g class="st5">
        <text class="st8" transform="translate(908.51 785.93)"><tspan x="0" y="0">Alighted here</tspan></text>
      </g>
    </g>
    <path class="st17" d="M912.5,803.13h117.9c1.7,0,3,1.3,3,3v10.6c0,1.7-1.3,3-3,3h-117.9c-1.7,0-3-1.3-3-3v-10.6c0-1.7,1.3-3,3-3Z"/>
    <g class="st5">
      <g class="st5">
        <text class="st8" transform="translate(909.51 817.93)"><tspan x="0" y="0">Passed here</tspan></text>
      </g>
    </g>
    <path class="st17" d="M912.5,835.13h165.5c1.7,0,3,1.3,3,3v10.6c0,1.7-1.3,3-3,3h-165.5c-1.7,0-3-1.3-3-3v-10.6c0-1.7,1.3-3,3-3Z"/>
    <g class="st5">
      <g class="st5">
        <text class="st8" transform="translate(909.51 849.93)"><tspan x="0" y="0">Want to be here</tspan></text>
      </g>
    </g>
    <path class="st17" d="M1056.4,675.53h53.4c1.7,0,3,1.3,3,3v10.6c0,1.7-1.3,3-3,3h-53.4c-1.7,0-3-1.3-3-3v-10.6c0-1.7,1.3-3,3-3Z"/>
    <g class="st5">
      <g class="st5">
        <text class="st8" transform="translate(1079.99 690.35)"><tspan x="0" y="0">5 pt</tspan></text>
      </g>
    </g>
    <path class="st17" d="M1056.4,706.53h53.4c1.7,0,3,1.3,3,3v10.6c0,1.7-1.3,3-3,3h-53.4c-1.7,0-3-1.3-3-3v-10.6c0-1.7,1.3-3,3-3Z"/>
    <g class="st5">
      <g class="st5">
        <text class="st8" transform="translate(1080.02 721.35)"><tspan x="0" y="0">4 pt</tspan></text>
      </g>
    </g>
    <path class="st17" d="M1057.4,738.53h53.4c1.7,0,3,1.3,3,3v10.6c0,1.7-1.3,3-3,3h-53.4c-1.7,0-3-1.3-3-3v-10.6c0-1.7,1.3-3,3-3Z"/>
    <g class="st5">
      <g class="st5">
        <text class="st8" transform="translate(1081.02 753.35)"><tspan x="0" y="0">3 pt</tspan></text>
      </g>
    </g>
    <path class="st17" d="M1057.4,770.53h53.4c1.7,0,3,1.3,3,3v10.6c0,1.7-1.3,3-3,3h-53.4c-1.7,0-3-1.3-3-3v-10.6c0-1.7,1.3-3,3-3Z"/>
    <g class="st5">
      <g class="st5">
        <text class="st8" transform="translate(1081.02 785.35)"><tspan x="0" y="0">2 pt</tspan></text>
      </g>
    </g>
    <path class="st17" d="M1057.4,802.53h53.4c1.7,0,3,1.3,3,3v10.6c0,1.7-1.3,3-3,3h-53.4c-1.7,0-3-1.3-3-3v-10.6c0-1.7,1.3-3,3-3Z"/>
    <g class="st5">
      <g class="st5">
        <text class="st8" transform="translate(1081.02 817.35)"><tspan x="0" y="0">1 pt</tspan></text>
      </g>
    </g>
    <path class="st17" d="M1057.4,834.53h53.4c1.7,0,3,1.3,3,3v10.6c0,1.7-1.3,3-3,3h-53.4c-1.7,0-3-1.3-3-3v-10.6c0-1.7,1.3-3,3-3Z"/>
    <g class="st5">
      <g class="st5">
        <text class="st8" transform="translate(1081.02 849.35)"><tspan x="0" y="0">0 pt</tspan></text>
      </g>
    </g>
    <path class="st17" d="M912.9,865.03h165.5c1.7,0,3,1.3,3,3v10.6c0,1.7-1.3,3-3,3h-165.5c-1.7,0-3-1.3-3-3v-10.6c0-1.7,1.3-3,3-3Z"/>
    <g class="st5">
      <g class="st5">
        <text class="st8" transform="translate(909.91 879.8)"><tspan x="0" y="0">Never been here</tspan></text>
      </g>
    </g>
    <path class="st17" d="M1057.8,864.43h53.4c1.7,0,3,1.3,3,3v10.6c0,1.7-1.3,3-3,3h-53.4c-1.7,0-3-1.3-3-3v-10.6c0-1.7,1.3-3,3-3Z"/>
    <g class="st5">
      <g class="st5">
        <text class="st8" transform="translate(1081.42 879.22)"><tspan x="0" y="0">0 pt</tspan></text>
      </g>
    </g>
  </g>
  <g class="st5">
    <g class="st5">
      <text class="st2" transform="translate(624.02 108.36)"><tspan x="0" y="0">CAM Level 0</tspan></text>
    </g>
  </g>
  <path id="Maryland" class="st12" d="M767.64,402.18h62.35c1.2,0,2.12.92,2.12,2.12v19.84c0,1.2-.92,2.12-2.12,2.12h-62.35c-1.2,0-2.12-.92-2.12-2.12v-19.84c0-1.2.92-2.12,2.12-2.12Z"/>
  <path id="Ohio" class="st12" d="M691.11,377.38h53.85c1.2,0,2.12.92,2.12,2.12v63.06c0,1.2-.92,2.12-2.12,2.12h-53.85c-1.2,0-2.12-.92-2.12-2.12v-63.06c0-1.2.92-2.12,2.12-2.12Z"/>
  <path id="California" class="st12" d="M291.47,367.45v197.05c0,1.77-1.99,2.76-3.4,1.7l-97.93-71.29c-.56-.42-.85-1.06-.85-1.7v-125.78c0-1.2.92-2.12,2.12-2.12h97.93c1.2,0,2.12.92,2.12,2.12h0v.02Z"/>
  <path id="Utah" class="st12" d="M293.59,365.33h51.73c1.2,0,2.12.92,2.12,2.12v102.04c0,1.2-.92,2.12-2.12,2.12h-51.73c-1.2,0-2.12-.92-2.12-2.12v-102.04c0-1.2.92-2.12,2.12-2.12Z"/>
  <path id="Idaho" class="st12" d="M270.21,256.91h61.65c1.2,0,2.12.92,2.12,2.12v104.16c0,1.2-.92,2.12-2.12,2.12h-61.65c-1.2,0-2.12-.92-2.12-2.12v-104.16c0-1.2.92-2.12,2.12-2.12Z"/>
  <path id="South_Dakota" class="st12" d="M428.93,312.89h100.62c1.2,0,2.12.92,2.12,2.12v48.18c0,1.2-.92,2.12-2.12,2.12h-100.62c-1.2,0-2.12-.92-2.12-2.12v-48.18c0-1.2.92-2.12,2.12-2.12h0Z"/>
  <path id="Nebraska" class="st12" d="M428.93,365.33h110.53c1.2,0,2.12.92,2.12,2.12v48.89c0,1.2-.92,2.12-2.12,2.12h-110.53c-1.2,0-2.12-.92-2.12-2.12v-48.89c0-1.2.92-2.12,2.12-2.12h0Z"/>
  <path id="Oklahoma" class="st12" d="M433.89,471.61h122.58c1.2,0,2.12.92,2.12,2.12v53.14c0,1.2-.92,2.12-2.12,2.12h-122.58c-1.2,0-2.12-.92-2.12-2.12v-53.14c0-1.2.92-2.12,2.12-2.12Z"/>
  <path id="Missouri" class="st12" d="M543.72,409.96h87.87c1.2,0,2.12.92,2.12,2.12v70.86c0,1.2-.92,2.12-2.12,2.12h-87.87c-1.2,0-2.12-.92-2.12-2.12v-70.86c0-1.2.92-2.12,2.12-2.12h0Z"/>
  <path id="Illinois" class="st12" d="M610.34,363.21h38.26c1.2,0,2.12.92,2.12,2.12v91.4c0,1.2-.92,2.12-2.12,2.12h-38.26c-1.2,0-2.12-.92-2.12-2.12v-91.4c0-1.2.92-2.12,2.12-2.12h0Z"/>
  <path id="Maine" class="st12" d="M874.27,249.82h26.58c1.2,0,2.12.92,2.12,2.12v61.65c0,1.2-.92,2.12-2.12,2.12h-26.58c-1.2,0-2.12-.92-2.12-2.12v-61.65c0-1.2.92-2.12,2.12-2.12Z"/>
  <path id="New_Hampshire" class="st12" d="M856.21,280.3h13.46c1.2,0,2.12.92,2.12,2.12v45.35c0,1.2-.92,2.12-2.12,2.12h-13.46c-1.2,0-2.12-.92-2.12-2.12v-45.35c0-1.2.92-2.12,2.12-2.12Z"/>
  <path id="Vermont" class="st12" d="M838.5,280.3h13.46c1.2,0,2.12.92,2.12,2.12v45.35c0,1.2-.92,2.12-2.12,2.12h-13.46c-1.2,0-2.12-.92-2.12-2.12v-45.35c0-1.2.92-2.12,2.12-2.12Z"/>
  <path id="Massachusettes" class="st12" d="M838.5,329.89h43.93c1.2,0,2.12.92,2.12,2.12v29.05c0,1.2-.92,2.12-2.12,2.12h-43.93c-1.2,0-2.12-.92-2.12-2.12v-29.05c0-1.2.92-2.12,2.12-2.12Z"/>
  <path id="Connecticut" class="st12" d="M838.5,349.04h18.42c1.2,0,2.12.92,2.12,2.12v9.92c0,1.2-.92,2.12-2.12,2.12h-18.42c-1.2,0-2.12-.92-2.12-2.12v-9.92c0-1.2.92-2.12,2.12-2.12Z"/>
  <path id="New_York" class="st12" d="M776.14,280.3h58.1c1.2,0,2.12.92,2.12,2.12v86.44c0,1.2-.92,2.12-2.12,2.12h-58.1c-1.2,0-2.12-.92-2.12-2.12v-86.44c0-1.2.92-2.12,2.12-2.12Z"/>
  <path id="Rhode_Island" class="st12" d="M861.17,349.04h8.5c1.2,0,2.12.92,2.12,2.12v9.92c0,1.2-.92,2.12-2.12,2.12h-8.5c-1.2,0-2.12-.92-2.12-2.12v-9.92c0-1.2.92-2.12,2.12-2.12Z"/>
  <path id="Pennsylvania" class="st12" d="M749.21,363.21h63.78c1.2,0,2.12.92,2.12,2.12v34.72c0,1.2-.92,2.12-2.12,2.12h-63.78c-1.2,0-2.12-.92-2.12-2.12v-34.72c0-1.2.92-2.12,2.12-2.12h0Z"/>
  <path id="New_Jersy" class="st12" d="M817.23,370.99h17.01c1.2,0,2.12.92,2.12,2.12v21.25c0,1.2-.92,2.12-2.12,2.12h-17.01c-1.2,0-2.12-.92-2.12-2.12v-21.25c0-1.2.92-2.12,2.12-2.12Z"/>
  <path id="Delaware" class="st12" d="M817.23,396.51h12.76c1.2,0,2.12.92,2.12,2.12v12.76c0,1.2-.92,2.12-2.12,2.12h-12.76c-1.2,0-2.12-.92-2.12-2.12v-12.76c0-1.2.92-2.12,2.12-2.12Z"/>
  <path id="Virginia" class="st12" d="M736.46,426.27h93.53c1.2,0,2.12.92,2.12,2.12v38.97c0,1.2-.92,2.12-2.12,2.12h-93.53c-1.2,0-2.12-.92-2.12-2.12v-38.97c0-1.2.92-2.12,2.12-2.12h0Z"/>
  <path id="DC" class="st12" d="M803.77,419.18h14.17c1.2,0,2.12.92,2.12,2.12v8.5c0,1.2-.92,2.12-2.12,2.12h-14.17c-1.2,0-2.12-.92-2.12-2.12v-8.5c0-1.2.92-2.12,2.12-2.12Z"/>
  <path id="West_Virginia" class="st12" d="M736.46,402.18h26.93c1.2,0,2.12.92,2.12,2.12v43.93c0,1.2-.92,2.12-2.12,2.12h-26.93c-1.2,0-2.12-.92-2.12-2.12v-43.93c0-1.2.92-2.12,2.12-2.12h0Z"/>
  <path id="Kentucky" class="st12" d="M635.84,443.98h96.36c1.2,0,2.12.92,2.12,2.12v21.25c0,1.2-.92,2.12-2.12,2.12h-96.36c-1.2,0-2.12-.92-2.12-2.12v-21.25c0-1.2.92-2.12,2.12-2.12h0Z"/>
  <path id="North_Carolina" class="st12" d="M744.25,469.49h72.27c1.2,0,2.12.92,2.12,2.12v23.38c0,1.2-.92,2.12-2.12,2.12h-72.27c-1.2,0-2.12-.92-2.12-2.12v-23.38c0-1.2.92-2.12,2.12-2.12Z"/>
  <path id="Tennessee" class="st12" d="M635.84,469.49h104.16c1.2,0,2.12.92,2.12,2.12v23.38c0,1.2-.92,2.12-2.12,2.12h-104.16c-1.2,0-2.12-.92-2.12-2.12v-23.38c0-1.2.92-2.12,2.12-2.12h0Z"/>
  <path id="South_Carolina" class="st12" d="M769.76,497.13h36.14c1.2,0,2.12.92,2.12,2.12v41.1c0,1.2-.92,2.12-2.12,2.12h-36.14c-1.2,0-2.12-.92-2.12-2.12v-41.1c0-1.2.92-2.12,2.12-2.12h0Z"/>
  <path id="Georgia" class="st12" d="M711.66,497.13h53.85c1.2,0,2.12.92,2.12,2.12v70.15c0,1.2-.92,2.12-2.12,2.12h-53.85c-1.2,0-2.12-.92-2.12-2.12v-70.15c0-1.2.92-2.12,2.12-2.12h0Z"/>
  <path id="Alabama" class="st12" d="M657.09,497.13h50.31c1.2,0,2.12.92,2.12,2.12v81.48c0,1.2-.92,2.12-2.12,2.12h-50.31c-1.2,0-2.12-.92-2.12-2.12v-81.48c0-1.2.92-2.12,2.12-2.12h0Z"/>
  <path id="Indiana" class="st12" d="M652.84,377.38h34.01c1.2,0,2.12.92,2.12,2.12v62.35c0,1.2-.92,2.12-2.12,2.12h-34.01c-1.2,0-2.12-.92-2.12-2.12v-62.35c0-1.2.92-2.12,2.12-2.12Z"/>
  <path id="Wisconsin" class="st12" d="M586.23,295.18h62.35c1.2,0,2.12.92,2.12,2.12v63.78c0,1.2-.92,2.12-2.12,2.12h-62.35c-1.2,0-2.12-.92-2.12-2.12v-63.78c0-1.2.92-2.12,2.12-2.12Z"/>
  <path id="Louisiana" class="st12" d="M564.98,547.44h66.61c1.2,0,2.12.92,2.12,2.12v62.35c0,1.2-.92,2.12-2.12,2.12h-66.61c-1.2,0-2.12-.92-2.12-2.12v-62.35c0-1.2.92-2.12,2.12-2.12Z"/>
  <path id="Arkansas" class="st12" d="M560.73,485.07h70.86c1.2,0,2.12.92,2.12,2.12v58.1c0,1.2-.92,2.12-2.12,2.12h-70.86c-1.2,0-2.12-.92-2.12-2.12v-58.1c0-1.2.92-2.12,2.12-2.12h0Z"/>
  <path id="Mississippi" class="st12" d="M614.58,497.13h38.26c1.2,0,2.12.92,2.12,2.12v81.48c0,1.2-.92,2.12-2.12,2.12h-38.26c-1.2,0-2.12-.92-2.12-2.12v-81.48c0-1.2.92-2.12,2.12-2.12h0Z"/>
  <path id="Iowa" class="st12" d="M533.8,356.12h72.27c1.2,0,2.12.92,2.12,2.12v49.61c0,1.2-.92,2.12-2.12,2.12h-72.27c-1.2,0-2.12-.92-2.12-2.12v-49.61c0-1.2.92-2.12,2.12-2.12Z"/>
  <path id="Minnesota" class="st12" d="M526.72,256.91h72.27c1.2,0,2.12.92,2.12,2.12v94.95c0,1.2-.92,2.12-2.12,2.12h-72.27c-1.2,0-2.12-.92-2.12-2.12v-94.95c0-1.2.92-2.12,2.12-2.12h0Z"/>
  <path id="Kansas" class="st12" d="M453.02,418.47h86.44c1.2,0,2.12.92,2.12,2.12v48.89c0,1.2-.92,2.12-2.12,2.12h-86.44c-1.2,0-2.12-.92-2.12-2.12v-48.89c0-1.2.92-2.12,2.12-2.12h0Z"/>
  <path id="North_Dakota" class="st12" d="M428.93,256.91h93.53c1.2,0,2.12.92,2.12,2.12v51.73c0,1.2-.92,2.12-2.12,2.12h-93.53c-1.2,0-2.12-.92-2.12-2.12v-51.73c0-1.2.92-2.12,2.12-2.12h0Z"/>
  <path id="Colorado" class="st12" d="M349.57,393.67h99.2c1.2,0,2.12.92,2.12,2.12v73.7c0,1.2-.92,2.12-2.12,2.12h-99.2c-1.2,0-2.12-.92-2.12-2.12v-73.7c0-1.2.92-2.12,2.12-2.12h0Z"/>
  <path id="Wyoming" class="st12" d="M336.11,323.52h88.58c1.2,0,2.12.92,2.12,2.12v65.9c0,1.2-.92,2.12-2.12,2.12h-88.58c-1.2,0-2.12-.92-2.12-2.12v-65.9c0-1.2.92-2.12,2.12-2.12Z"/>
  <path id="Montana" class="st12" d="M313.44,256.91h111.25c1.2,0,2.12.92,2.12,2.12v62.35c0,1.2-.92,2.12-2.12,2.12h-111.25c-1.2,0-2.12-.92-2.12-2.12v-62.35c0-1.2.92-2.12,2.12-2.12Z"/>
  <path id="Arizona" class="st12" d="M293.59,471.61h51.73c1.2,0,2.12.92,2.12,2.12v92.83c0,1.2-.92,2.12-2.12,2.12h-51.73c-1.2,0-2.12-.92-2.12-2.12v-92.83c0-1.2.92-2.12,2.12-2.12h0Z"/>
  <path id="Oregon" class="st12" d="M181.64,302.98h84.32c1.2,0,2.12.92,2.12,2.12v58.1c0,1.2-.92,2.12-2.12,2.12h-84.32c-1.2,0-2.12-.92-2.12-2.12v-58.1c0-1.2.92-2.12,2.12-2.12h0Z"/>
  <path id="Washington" class="st12" d="M171.72,256.91h94.24c1.2,0,2.12.92,2.12,2.12v41.81c0,1.2-.92,2.12-2.12,2.12h-94.24c-1.2,0-2.12-.92-2.12-2.12v-41.81c0-1.2.92-2.12,2.12-2.12h0Z"/>
  <path id="Texas" class="st12" d="M562.85,531.13v82.19c0,.5-.14.92-.42,1.27l-47.05,60.65c-.78.99-2.2,1.14-3.12.29l-116.63-106.22c-.42-.42-.71-.99-.71-1.56v-36.64c0-1.2.92-2.12,2.12-2.12h163.69c1.2,0,2.12.92,2.12,2.12h0v.02Z"/>
  <path id="New_Mexico" class="st12" d="M349.57,471.61h80.07c1.2,0,2.12.92,2.12,2.12v92.83c0,1.2-.92,2.12-2.12,2.12h-80.07c-1.2,0-2.12-.92-2.12-2.12v-92.83c0-1.2.92-2.12,2.12-2.12h0Z"/>
  <path id="Michigan" class="st12" d="M713.57,282.07v93.18c0,1.2-.92,2.12-2.12,2.12h-39.47c-1.2,0-2.12-.92-2.12-2.12v-77.95c0-1.2-.92-2.12-2.12-2.12h-40.25c-1.2,0-2.12-.92-2.12-2.12v-10.98c0-1.2.92-2.12,2.12-2.12h83.97c1.2,0,2.12.92,2.12,2.12h0Z"/>
  <path id="Florida" class="st12" d="M767.64,573.65v93.04c0,1.2-.92,2.12-2.12,2.12h-24.8c-1.2,0-2.12-.92-2.12-2.12v-73.12c0-1.2-.92-2.12-2.12-2.12h-52.08c-1.2,0-2.12-.92-2.12-2.12v-15.66c0-1.2.92-2.12,2.12-2.12h81.13c1.2,0,2.12.92,2.12,2.12h0v-.02Z"/>
  <path id="Alaska" class="st13" d="M99.86,155.61h60.6c1.2,0,2.18-.98,2.18-2.18V13.71c0-1.2-.98-2.18-2.18-2.18h-83.28c-.99,0-1.86.67-2.1,1.63l-23.88,152.23c-.36,1.38.68,2.72,2.1,2.72h42.41c1.22,0,2.21-1.01,2.18-2.23l-.2-8.04c-.03-1.22.96-2.23,2.18-2.23h-.01,0Z"/>
  <path id="Hawaii" class="st12" d="M53.73,487.16h-18.69c-1.67,0-2.95-1.28-2.95-2.95v-9.65c0-2.36,2.65-3.73,4.63-2.46l103.71,72.32c2.36,1.67,1.18,5.41-1.67,5.41h-29.62c-1.58,0-2.85-1.18-2.95-2.76l-2.17-40.24c-.1-1.58-1.37-2.76-2.95-2.76h-41.52c-1.67,0-2.95-1.28-2.95-2.95v-10.91c.1-1.77-1.18-3.05-2.85-3.05h-.03,0Z"/>
  <path id="Puerto_Rico" class="st12" d="M992.78,485.63l-6.61,10.94c-.51.93-1.55,1.55-2.68,1.55h-40.57c-1.75,0-3.09-1.35-3.09-3.09v-10.94c0-1.75,1.35-3.09,3.09-3.09h47.18c2.37,0,3.91,2.58,2.68,4.64h0Z"/>
  <path id="Guam" class="st12" d="M948.4,557.48h-5.48c-1.75,0-3.09-1.35-3.09-3.09v-13.01c0-.93.42-1.75,1.13-2.37l12.6-10.52c2.37-1.97,5.88.31,4.95,3.3l-7.12,23.54c-.42,1.24-1.66,2.17-2.99,2.17h0v-.02Z"/>
  <path id="Northern_Mariana_Islands" class="st12" d="M1006,542.38l-17.92,2.19c-3.02.32-5.01,3.34-4.18,6.34l.18.68c1.33,4.69,7.88,5.01,9.54.32l6.7-18.57c1.69-4.85,8.71-4.35,9.71.68l.5,2.34c.32,2.84-1.69,5.69-4.52,6.02h0Z"/>
  <path id="American_Samoa" class="st12" d="M1051.72,544.91l-5.57,2.99c-1.04.62-2.37.51-3.4-.31l-2.06-1.55c-2.06-1.66-1.35-4.95,1.35-5.48l7.64-1.44c3.51-.73,5.17,4.02,2.06,5.79h-.02Z"/>
  <path id="Nevada" class="st12" d="M291.47,367.45v120.32c0,1.7-1.91,2.76-3.34,1.7l-63.41-44.92c-.56-.42-.92-1.06-.92-1.7v-75.4c0-1.2.92-2.12,2.12-2.12h63.41c1.2,0,2.12.92,2.12,2.12h.02Z"/>
  <path id="US_Virgin_Islands" class="st12" d="M1042.64,480.99h15.58c2.58,0,4.02,2.99,2.37,5.06l-13.11,16.31c-1.66,2.06-.2,5.06,2.37,5.06h9.5c2.99,0,4.24-3.82,1.86-5.57l-20.44-15.27c-2.37-1.75-1.13-5.57,1.86-5.57l.02-.02h-.01Z"/>
  <path id="British_Columbia" class="st12" d="M166.1,153.89h153.42c1.97,0,3.46,1.49,3.46,3.43v96.16c0,1.94-1.5,3.43-3.46,3.43h-153.42c-1.97,0-3.46-1.49-3.46-3.43v-96.16c0-1.94,1.5-3.43,3.46-3.43h0Z"/>
  <path id="Alberta" class="st12" d="M324.09,153.89h49.4c.63,0,1.12,1.49,1.12,3.43v96.16c0,1.94-.48,3.43-1.12,3.43h-49.4c-.63,0-1.12-1.49-1.12-3.43v-96.16c0-1.94.48-3.43,1.12-3.43h0Z"/>
  <path id="Saskatchewan" class="st12" d="M376.58,153.89h87.91c1.13,0,1.99,1.49,1.99,3.43v96.16c0,1.94-.86,3.43-1.99,3.43h-87.91c-1.13,0-1.99-1.49-1.99-3.43v-96.16c0-1.94.86-3.43,1.99-3.43h0Z"/>
  <path id="Manitoba" class="st13" d="M466.47,157.06v96.68c0,1.75,1.42,3.18,3.18,3.18h78.56c1.75,0,3.18-1.42,3.18-3.18v-55.52c0-1.75-1.42-3.18-3.18-3.18h-20.45c-1.75,0-3.18-1.42-3.18-3.18v-34.82c0-1.75-1.42-3.18-3.18-3.18h-51.77c-1.75,0-3.18,1.42-3.18,3.18h.01v.02Z"/>
  <path id="Ontario" class="st13" d="M551.38,198.21v55.54c0,1.74,1.41,3.17,3.17,3.17h116.24c1.74,0,3.17,1.41,3.17,3.17v16.72c0,1.74,1.41,3.15,3.15,3.17l115.19.34c1.75,0,3.18-1.41,3.18-3.17v-78.92c0-1.74-1.41-3.17-3.17-3.17h-237.76c-1.74,0-3.17,1.41-3.17,3.17h0v-.02Z"/>
  <path id="Quebec" class="st13" d="M798.68,280.07h70.27c1.77,0,3.22-1.44,3.22-3.22v-23.8c0-1.77,1.44-3.22,3.22-3.22h8.12c1.77,0,3.22-1.44,3.22-3.22v-116.16c0-1.77-1.44-3.22-3.22-3.22h-84.82c-1.77,0-3.22,1.44-3.22,3.22v146.4c0,1.77,1.44,3.22,3.22,3.22h0Z"/>
  <path id="New_Brunswick" class="st13" d="M886.7,218.3v28.33c0,1.77,1.43,3.21,3.21,3.21h11.06c1.11,0,2.01.9,2.01,2.01v21.49c0,1.77,1.43,3.21,3.21,3.21h17.96c1.11,0,2.01-.9,2.01-2.01v-56.22c0-1.77-1.43-3.21-3.21-3.21h-33.02c-1.77,0-3.21,1.43-3.21,3.21h-.01v-.02Z"/>
  <path id="Nova_Scotia" class="st13" d="M914.77,279.68v9.38c0,1.11.9,2.02,2.02,2.02h26.58c1.11,0,2.02-.9,2.02-2.02v-37.23c0-1.11-.9-2.02-2.02-2.02h-9.15c-2.87,0-4.25-3.53-2.14-5.47l7.38-6.81c2.11-1.94.73-5.47-2.14-5.47h-7.42c-1.72,0-3.12,1.38-3.15,3.11l-.55,38.23c-.02,1.72-1.43,3.11-3.15,3.11h-5.12c-1.74,0-3.15,1.41-3.15,3.15h0Z"/>
  <path id="Newfoundland_and_Labrador" class="st13" d="M886.7,129.39v34.25c0,1.2.97,2.17,2.17,2.17h49.22c1.2,0,2.17.97,2.17,2.17v16.77c0,2.05-2.59,2.95-3.87,1.34l-45.82-58.04c-1.27-1.61-3.87-.71-3.87,1.34h0Z"/>
  <path id="Nunavut" class="st13" d="M522.53,155.61h-53.99c-1.14,0-2.06-.92-2.06-2.06v-53.95c0-.66-.32-61.82-.85-62.21l-30.41-22.12c-1.61-1.18-.79-3.73,1.21-3.73h86.1c1.14,0,2.06.92,2.06,2.06v139.95c0,1.14-.92,2.06-2.06,2.06Z"/>
  <path id="Northwest_Territories" class="st13" d="M268.98,155.61h194.69c1.54,0,2.79-1.25,2.79-2.79v-52.86c0-.89-.42-62.28-1.15-62.8l-34.51-25.09c-.48-.35-1.05-.53-1.65-.53h-195.34c-2.03,0-3.38,2.09-2.55,3.94l35.16,138.49c.46,1,1.44,1.65,2.55,1.65h.01Z"/>
  <path id="Yukon" class="st13" d="M164.78,155.61h99.07c1.56,0,2.59-1.6,1.95-3.03L230.06,12.79c-.35-.76-1.12-1.26-1.95-1.26h-63.33c-1.19,0-2.15.96-2.15,2.15v139.79c0,1.19.96,2.15,2.15,2.15h0Z"/>
  <rect id="Prince_Edward_Island" class="st13" x="933.05" y="212.99" width="23.53" height="13.85" rx="2.03" ry="2.03"/>
  <path id="Baja_California" class="st12" d="M286.51,565.07l-53.75-39.13c-1.34-.98-3.22-.02-3.22,1.64v140.16c0,1.12.91,2.03,2.03,2.03h30.77c1.12,0,2.03-.91,2.03-2.03v-97c0-1.12.9-2.03,2.02-2.03,3.96.01,12.87.05,18.93.02s6.14-.06,1.19-3.67Z"/>
  <rect id="Baja_California_Sur" class="st12" x="229.55" y="669.77" width="34.82" height="105.64" rx="1.59" ry="1.59"/>
  <path id="Sonora" class="st12" d="M292.22,570.84l34.05,96.9c.22.65.84,1.07,1.52,1.07h10.88c.89,0,1.61-.72,1.61-1.61v-96.9c0-.89-.72-1.61-1.61-1.61h-44.93c-1.12,0-1.89,1.09-1.52,2.15h0Z"/>
  <path id="Chihuahua" class="st12" d="M340.28,570.7v96.1c0,1.11.9,2.01,2.01,2.01h63.52c1.11,0,2.01-.9,2.01-2.01v-85.2c0-.56-.23-1.09-.64-1.47l-11.69-10.92c-.37-.35-.86-.54-1.37-.54h-51.83c-1.11,0-2.01.91-2.01,2.02Z"/>
  <path id="Coahulia" class="st12" d="M409.85,668.79h7.64c1.12,0,2.02.91,2.02,2.02v25.86c0,1.12.91,2.02,2.02,2.02h37.96c1.12,0,2.02-.91,2.02-2.02v-66.45c0-.57-.24-1.11-.66-1.49l-49.65-45.22c-1.3-1.18-3.38-.26-3.38,1.49v81.77c0,1.12.91,2.02,2.02,2.02Z"/>
  <path id="Tamaulipas" class="st12" d="M491.74,656.86l21.6,19.8c.41.37.64.9.64,1.45v35.67c0,1.09-.88,1.97-1.97,1.97h-21.6c-1.09,0-1.97-.88-1.97-1.97v-55.46c0-1.72,2.04-2.61,3.3-1.45Z"/>
  <path id="Nuevo_León" class="st12" d="M462.44,699.27l22.99,14.58c1.31.83,3.01-.11,3.01-1.66v-57.49c0-.55-.23-1.08-.64-1.45l-22.99-20.94c-1.26-1.15-3.28-.25-3.28,1.45v63.85c0,.67.34,1.3.91,1.66Z"/>
  <path id="Sinaloa" class="st12" d="M327.46,671.13l23.09,67.5c.24.71.91,1.19,1.66,1.19h15.17c.97,0,1.75-.79,1.75-1.75v-67.5c0-.97-.79-1.75-1.75-1.75h-38.26c-1.2,0-2.05,1.18-1.66,2.33h0v-.02Z"/>
  <rect id="Durango" class="st12" x="369.13" y="668.82" width="50.39" height="70.97" rx="2.08" ry="2.08"/>
  <path id="San_Luis_Potosí" class="st12" d="M464.58,700.63l22.94,14.54c.58.36.92,1,.92,1.68v40.47c0,1.1-.89,1.99-1.99,1.99h-22.94c-1.1,0-1.99-.89-1.99-1.99v-55c0-1.57,1.73-2.52,3.05-1.68Z"/>
  <path id="Nayarit" class="st12" d="M351.63,741.92l12.66,38.89c.21.66.83,1.1,1.52,1.1h18.41c.88,0,1.6-.71,1.6-1.6v-38.89c0-.88-.71-1.6-1.6-1.6h-31.07c-1.08,0-1.86,1.06-1.52,2.09h0Z"/>
  <path id="Zacatecas" class="st12" d="M421.52,698.69h38.01c1.1,0,2,.9,2,2v56.61c0,1.1-.9,2-2,2h-25.76c-1.1,0-2-.9-2-2v-15.48c0-1.1-.9-2-2-2h-8.24c-1.1,0-2-.9-2-2v-37.13c0-1.1.9-2,2-2Z"/>
  <path id="Jalisco" class="st12" d="M365.5,784.43l3.23,11.76c.24.87,1.02,1.47,1.92,1.47h88.88c1.1,0,1.99-.89,1.99-1.99v-34.37c0-1.1-.89-1.99-1.99-1.99h-25.78c-1.1,0-1.99-.89-1.99-1.99v-15.49c0-1.1-.89-1.99-1.99-1.99h-41.95c-1.1,0-1.99.89-1.99,1.99v38.1c0,1.1-.89,1.99-1.99,1.99h-16.4c-1.32,0-2.27,1.25-1.92,2.52Z"/>
  <rect id="Guanajuato" class="st12" x="461.46" y="759.3" width="24.26" height="38.36" rx="1.47" ry="1.47"/>
  <rect id="Querétaro" class="st12" x="485.72" y="759.3" width="19.59" height="38.36" rx="1.53" ry="1.53"/>
  <rect id="Hidalgo" class="st12" x="505.3" y="759.3" width="17.37" height="38.36" rx="1.55" ry="1.55"/>
  <rect id="Colima" class="st12" x="369.13" y="797.66" width="24.63" height="20.45" rx="1.52" ry="1.52"/>
  <rect id="Michoacán" class="st12" x="393.76" y="797.66" width="91.96" height="46.42" rx="1.53" ry="1.53"/>
  <path id="México" class="st12" d="M520.65,797.66h-32.91c-1.12,0-2.02.91-2.02,2.02v42.38c0,1.12.91,2.02,2.02,2.02h11.64c1.12,0,2.02-.91,2.02-2.02v-21.93c0-1.12.91-2.02,2.02-2.02h17.23c1.12,0,2.02-.91,2.02-2.02v-16.41c0-1.12-.91-2.02-2.02-2.02Z"/>
  <rect id="Tlaxcala" class="st12" x="522.67" y="797.66" width="22.14" height="20.45" rx="2" ry="2"/>
  <path id="Puebla" class="st12" d="M522.67,820.11v21.97c0,1.1.89,2,2,2h33.88c1.1,0,2-.89,2-2v-42.42c0-1.1-.89-2-2-2h-11.74c-1.1,0-2,.89-2,2v16.46c0,1.1-.89,2-1.99,2h-18.16c-1.1,0-1.99.89-1.99,2Z"/>
  <rect id="Ciudad_de_México" class="st12" x="501.4" y="818.11" width="21.27" height="12.64" rx="1.93" ry="1.93"/>
  <rect id="Morelos" class="st12" x="501.4" y="830.75" width="21.27" height="13.33" rx="2" ry="2"/>
  <rect id="Aguascalientes" class="st12" x="431.76" y="744.49" width="20.45" height="14.81" rx="1.92" ry="1.92"/>
  <rect id="Guerrero" class="st12" x="415.41" y="844.08" width="124.82" height="43.89" rx="1.58" ry="1.58"/>
  <rect id="Oaxaca" class="st12" x="540.23" y="844.08" width="63.62" height="43.89" rx="1.58" ry="1.58"/>
  <path id="Veracruz" class="st12" d="M513.06,715.75h-22.59c-1.12,0-2.03.91-2.03,2.03v39.49c0,1.12.91,2.03,2.03,2.03h30.17c1.12,0,2.03.91,2.03,2.03v34.3c0,1.12.91,2.03,2.03,2.03h33.85c1.12,0,2.03.91,2.03,2.03v42.35c0,1.12.91,2.03,2.03,2.03h39.18c1.12,0,2.03-.91,2.03-2.03v-22.22c0-.49-.18-.96-.5-1.33l-88.73-102.04c-.39-.44-.94-.7-1.53-.7Z"/>
  <path id="Chiapas" class="st12" d="M603.83,886.79v-41.1c0-.89.72-1.61,1.61-1.61h51.72c.89,0,1.61.72,1.61,1.61v57.85c0,1.09-1.07,1.88-2.11,1.54l-51.72-16.75c-.67-.21-1.12-.84-1.12-1.54h0Z"/>
  <rect id="Tabasco" class="st12" x="603.83" y="819.06" width="54.96" height="25.02" rx="1.53" ry="1.53"/>
  <path id="Campeche" class="st12" d="M658.79,819.83v22.63c0,.89.72,1.63,1.63,1.63h57.48c.89,0,1.63-.72,1.63-1.63v-70.25c0-1.37-1.6-2.12-2.66-1.25l-57.48,47.63c-.37.31-.58.76-.58,1.25h-.02Z"/>
  <path id="Quintana_Roo" class="st12" d="M722.06,842.19l46.88-34.91c1.23-.91.58-2.87-.96-2.87h-46.88c-.88,0-1.59.71-1.59,1.59v34.91c0,1.31,1.5,2.06,2.55,1.27h0Z"/>
  <rect id="Yucatán" class="st12" x="719.52" y="768.74" width="53.27" height="35.66" rx="1.8" ry="1.8"/>
  <g id="Layer_2">
    <rect class="st17" x="542.74" y="296.24" width="41.31" height="23.03"/>
    <g class="st5">
      <g class="st5">
        <text class="st0" transform="translate(549.86 313.97)"><tspan x="0" y="0">MN</tspan></text>
      </g>
    </g>
    <rect class="st17" x="549.11" y="371.7" width="41.31" height="23.03"/>
    <g class="st5">
      <g class="st5">
        <text class="st0" transform="translate(560.97 389.44)"><tspan x="0" y="0">IA</tspan></text>
      </g>
    </g>
    <rect class="st17" x="563.28" y="437.6" width="41.31" height="23.03"/>
    <g class="st5">
      <g class="st5">
        <text class="st0" transform="translate(570.11 455.34)"><tspan x="0" y="0">MO</tspan></text>
      </g>
    </g>
    <rect class="st17" x="569.65" y="504.92" width="41.31" height="23.03"/>
    <g class="st5">
      <g class="st5">
        <text class="st0" transform="translate(578.08 522.65)"><tspan x="0" y="0">AR</tspan></text>
      </g>
    </g>
    <rect class="st17" x="569.65" y="568.69" width="41.31" height="23.03"/>
    <g class="st5">
      <g class="st5">
        <text class="st0" transform="translate(579.05 586.43)"><tspan x="0" y="0">LA</tspan></text>
      </g>
    </g>
    <rect class="st17" x="612.88" y="528.31" width="41.31" height="23.03"/>
    <g class="st5">
      <g class="st5">
        <text class="st0" transform="translate(620.78 546.03)"><tspan x="0" y="0">MS</tspan></text>
      </g>
    </g>
    <rect class="st17" x="661.78" y="528.31" width="41.31" height="23.03"/>
    <g class="st5">
      <g class="st5">
        <text class="st0" transform="translate(671.17 546.03)"><tspan x="0" y="0">AL</tspan></text>
      </g>
    </g>
    <rect class="st17" x="717.75" y="523.34" width="41.31" height="23.03"/>
    <g class="st5">
      <g class="st5">
        <text class="st0" transform="translate(725.54 541.07)"><tspan x="0" y="0">GA</tspan></text>
      </g>
    </g>
    <rect class="st17" x="767.35" y="508.46" width="41.31" height="23.03"/>
    <g class="st5">
      <g class="st5">
        <text class="st0" transform="translate(776.03 526.2)"><tspan x="0" y="0">SC</tspan></text>
      </g>
    </g>
    <rect class="st17" x="759.55" y="471.61" width="41.31" height="23.03"/>
    <g class="st5">
      <g class="st5">
        <text class="st0" transform="translate(767.45 489.35)"><tspan x="0" y="0">NC</tspan></text>
      </g>
    </g>
    <rect class="st17" x="773.72" y="437.6" width="41.31" height="23.03"/>
    <g class="st5">
      <g class="st5">
        <text class="st0" transform="translate(782.41 455.34)"><tspan x="0" y="0">VA</tspan></text>
      </g>
    </g>
    <rect class="st17" x="665.32" y="471.61" width="41.31" height="23.03"/>
    <g class="st5">
      <g class="st5">
        <text class="st0" transform="translate(674.18 489.35)"><tspan x="0" y="0">TN</tspan></text>
      </g>
    </g>
    <rect class="st17" x="661.78" y="445.4" width="41.31" height="23.03"/>
    <g class="st5">
      <g class="st5">
        <text class="st0" transform="translate(670.81 463.14)"><tspan x="0" y="0">KY</tspan></text>
      </g>
    </g>
    <rect class="st17" x="649.02" y="399.34" width="41.31" height="23.03"/>
    <g class="st5">
      <g class="st5">
        <text class="st0" transform="translate(660.55 417.08)"><tspan x="0" y="0">IN</tspan></text>
      </g>
    </g>
    <rect class="st17" x="608.63" y="399.34" width="41.31" height="23.03"/>
    <g class="st5">
      <g class="st5">
        <text class="st0" transform="translate(621.48 417.08)"><tspan x="0" y="0">IL</tspan></text>
      </g>
    </g>
    <rect class="st17" x="691.53" y="400.05" width="41.31" height="23.03"/>
    <g class="st5">
      <g class="st5">
        <text class="st0" transform="translate(698.99 417.78)"><tspan x="0" y="0">OH</tspan></text>
      </g>
    </g>
    <rect class="st17" x="729.09" y="414.92" width="41.31" height="23.03"/>
    <g class="st5">
      <g class="st5">
        <text class="st3" transform="translate(737.64 431.89)"><tspan x="0" y="0">WV</tspan></text>
      </g>
    </g>
    <rect class="st17" x="767.35" y="402.88" width="41.31" height="23.03"/>
    <g class="st5">
      <g class="st5">
        <text class="st3" transform="translate(776.29 419.84)"><tspan x="0" y="0">MD</tspan></text>
      </g>
    </g>
    <rect class="st17" x="760.27" y="371.7" width="41.31" height="23.03"/>
    <g class="st5">
      <g class="st5">
        <text class="st0" transform="translate(769.12 389.44)"><tspan x="0" y="0">PA</tspan></text>
      </g>
    </g>
    <rect class="st17" x="604.38" y="318.56" width="41.31" height="23.03"/>
    <g class="st5">
      <g class="st5">
        <text class="st0" transform="translate(614.38 336.3)"><tspan x="0" y="0">WI</tspan></text>
      </g>
    </g>
    <rect class="st17" x="670.99" y="318.56" width="41.31" height="23.03"/>
    <g class="st5">
      <g class="st5">
        <text class="st0" transform="translate(681.89 336.3)"><tspan x="0" y="0">MI</tspan></text>
      </g>
    </g>
    <rect class="st17" x="785.07" y="312.19" width="41.31" height="23.03"/>
    <g class="st5">
      <g class="st5">
        <text class="st0" transform="translate(793.94 329.92)"><tspan x="0" y="0">NY</tspan></text>
      </g>
    </g>
    <rect class="st17" x="867.97" y="271.09" width="41.31" height="23.03"/>
    <g class="st5">
      <g class="st5">
        <text class="st0" transform="translate(875.86 288.82)"><tspan x="0" y="0">ME</tspan></text>
      </g>
    </g>
    <rect class="st17" x="840.34" y="327.77" width="41.31" height="23.03"/>
    <g class="st5">
      <g class="st5">
        <text class="st0" transform="translate(847.78 345.51)"><tspan x="0" y="0">MA</tspan></text>
      </g>
    </g>
    <rect class="st17" x="732.63" y="608.37" width="41.31" height="23.03"/>
    <g class="st5">
      <g class="st5">
        <text class="st0" transform="translate(743.01 626.1)"><tspan x="0" y="0">FL</tspan></text>
      </g>
    </g>
    <rect class="st17" x="475.41" y="571.53" width="41.31" height="23.03"/>
    <g class="st5">
      <g class="st5">
        <text class="st0" transform="translate(485.61 589.27)"><tspan x="0" y="0">TX</tspan></text>
      </g>
    </g>
    <rect class="st17" x="475.41" y="488.62" width="41.31" height="23.03"/>
    <g class="st5">
      <g class="st5">
        <text class="st0" transform="translate(483.03 506.36)"><tspan x="0" y="0">OK</tspan></text>
      </g>
    </g>
    <rect class="st17" x="475.41" y="433.35" width="41.31" height="23.03"/>
    <g class="st5">
      <g class="st5">
        <text class="st0" transform="translate(484.1 451.08)"><tspan x="0" y="0">KS</tspan></text>
      </g>
    </g>
    <rect class="st17" x="464.79" y="380.21" width="41.31" height="23.03"/>
    <g class="st5">
      <g class="st5">
        <text class="st0" transform="translate(473.3 397.94)"><tspan x="0" y="0">NE</tspan></text>
      </g>
    </g>
    <rect class="st17" x="454.87" y="327.77" width="41.31" height="23.03"/>
    <g class="st5">
      <g class="st5">
        <text class="st0" transform="translate(463.55 345.51)"><tspan x="0" y="0">SD</tspan></text>
      </g>
    </g>
    <rect class="st17" x="454.87" y="274.63" width="41.31" height="23.03"/>
    <g class="st5">
      <g class="st5">
        <text class="st0" transform="translate(462.76 292.37)"><tspan x="0" y="0">ND</tspan></text>
      </g>
    </g>
    <rect class="st17" x="348.58" y="278.88" width="41.31" height="23.03"/>
    <g class="st5">
      <g class="st5">
        <text class="st0" transform="translate(356.83 296.62)"><tspan x="0" y="0">MT</tspan></text>
      </g>
    </g>
    <rect class="st17" x="359.92" y="346.9" width="41.31" height="23.03"/>
    <g class="st5">
      <g class="st5">
        <text class="st0" transform="translate(367.27 364.64)"><tspan x="0" y="0">WY</tspan></text>
      </g>
    </g>
    <rect class="st17" x="378.34" y="421.31" width="41.31" height="23.03"/>
    <g class="st5">
      <g class="st5">
        <text class="st0" transform="translate(385.95 439.04)"><tspan x="0" y="0">CO</tspan></text>
      </g>
    </g>
    <rect class="st17" x="369.13" y="508.46" width="41.31" height="23.03"/>
    <g class="st5">
      <g class="st5">
        <text class="st0" transform="translate(376.23 526.2)"><tspan x="0" y="0">NM</tspan></text>
      </g>
    </g>
    <rect class="st17" x="298.98" y="508.46" width="41.31" height="23.03"/>
    <g class="st5">
      <g class="st5">
        <text class="st0" transform="translate(308.02 526.2)"><tspan x="0" y="0">AZ</tspan></text>
      </g>
    </g>
    <rect class="st17" x="298.98" y="409.96" width="41.31" height="23.03"/>
    <g class="st5">
      <g class="st5">
        <text class="st0" transform="translate(307.85 427.7)"><tspan x="0" y="0">UT</tspan></text>
      </g>
    </g>
    <rect class="st17" x="280.56" y="329.89" width="41.31" height="23.03"/>
    <g class="st5">
      <g class="st5">
        <text class="st0" transform="translate(292.25 347.63)"><tspan x="0" y="0">ID</tspan></text>
      </g>
    </g>
    <rect class="st17" x="237.33" y="398.63" width="41.31" height="23.03"/>
    <g class="st5">
      <g class="st5">
        <text class="st0" transform="translate(245.67 416.37)"><tspan x="0" y="0">NV</tspan></text>
      </g>
    </g>
    <rect class="st17" x="216.79" y="477.29" width="41.31" height="23.03"/>
    <g class="st5">
      <g class="st5">
        <text class="st0" transform="translate(225.02 495.02)"><tspan x="0" y="0">CA</tspan></text>
      </g>
    </g>
    <rect class="st17" x="203.32" y="322.81" width="41.31" height="23.03"/>
    <g class="st5">
      <g class="st5">
        <text class="st0" transform="translate(211.11 340.55)"><tspan x="0" y="0">OR</tspan></text>
      </g>
    </g>
    <rect class="st17" x="196.23" y="268.25" width="41.31" height="23.03"/>
    <g class="st5">
      <g class="st5">
        <text class="st0" transform="translate(202.79 285.99)"><tspan x="0" y="0">WA</tspan></text>
      </g>
    </g>
    <g class="st5">
      <g class="st5">
        <text class="st0" transform="translate(47.67 532.43)"><tspan x="0" y="0">HI</tspan></text>
      </g>
    </g>
    <rect class="st17" x="804.91" y="373.83" width="41.31" height="23.03"/>
    <g class="st5">
      <g class="st5">
        <text class="st7" transform="translate(817.05 390.02)"><tspan x="0" y="0">NJ</tspan></text>
      </g>
    </g>
    <rect class="st17" x="802.99" y="397.85" width="41.31" height="15.59"/>
    <g class="st5">
      <g class="st5">
        <text class="st4" transform="translate(817.63 408.78)"><tspan x="0" y="0">DE</tspan></text>
      </g>
    </g>
    <rect class="st17" x="799.66" y="419.46" width="22.32" height="12.47"/>
    <g class="st5">
      <g class="st5">
        <text class="st4" transform="translate(804.56 428.79)"><tspan x="0" y="0">DC</tspan></text>
      </g>
    </g>
    <rect class="st17" x="835.51" y="349.74" width="22.32" height="12.47"/>
    <g class="st5">
      <g class="st5">
        <text class="st4" transform="translate(840.87 359.03)"><tspan x="0" y="0">CT</tspan></text>
      </g>
    </g>
    <rect class="st17" x="853.94" y="349.74" width="22.32" height="12.47"/>
    <g class="st5">
      <g class="st5">
        <text class="st4" transform="translate(860.71 359.03)"><tspan x="0" y="0">RI</tspan></text>
      </g>
    </g>
    <rect class="st17" x="834.1" y="301.55" width="22.32" height="12.47"/>
    <g class="st5">
      <g class="st5">
        <text class="st1" transform="translate(839.23 311.85)"><tspan x="0" y="0">VT</tspan></text>
      </g>
    </g>
    <rect class="st17" x="851.82" y="301.55" width="22.32" height="12.47"/>
    <g class="st5">
      <g class="st5">
        <text class="st1" transform="translate(855.51 311.85)"><tspan x="0" y="0">NH</tspan></text>
      </g>
    </g>
    <g class="st5">
      <g class="st5">
        <text class="st0" transform="translate(1034.03 580.21)"><tspan x="0" y="0">AS</tspan></text>
      </g>
    </g>
    <g class="st5">
      <g class="st5">
        <text class="st0" transform="translate(986.52 580.21)"><tspan x="0" y="0">MP</tspan></text>
      </g>
    </g>
    <g class="st5">
      <g class="st5">
        <text class="st0" transform="translate(933.4 580.21)"><tspan x="0" y="0">GU</tspan></text>
      </g>
    </g>
    <g class="st5">
      <g class="st5">
        <text class="st0" transform="translate(1039.18 468.43)"><tspan x="0" y="0">VI</tspan></text>
      </g>
    </g>
    <g class="st5">
      <g class="st5">
        <text class="st0" transform="translate(955.1 468.43)"><tspan x="0" y="0">PR</tspan></text>
      </g>
    </g>
    <g class="st5">
      <g class="st5">
        <text class="st0" transform="translate(227.36 217.67)"><tspan x="0" y="0">BC</tspan></text>
      </g>
    </g>
    <g class="st5">
      <g class="st5">
        <text class="st0" transform="translate(338.79 217.98)"><tspan x="0" y="0">AB</tspan></text>
      </g>
    </g>
    <g class="st5">
      <g class="st5">
        <text class="st0" transform="translate(407.09 217.98)"><tspan x="0" y="0">SK</tspan></text>
      </g>
    </g>
    <g class="st5">
      <g class="st5">
        <text class="st0" transform="translate(492.47 217.98)"><tspan x="0" y="0">MB</tspan></text>
      </g>
    </g>
    <g class="st5">
      <g class="st5">
        <text class="st0" transform="translate(675.29 237.67)"><tspan x="0" y="0">ON</tspan></text>
      </g>
    </g>
    <g class="st5">
      <g class="st5">
        <text class="st0" transform="translate(829.27 212.33)"><tspan x="0" y="0">QC</tspan></text>
      </g>
    </g>
    <g class="st5">
      <g class="st5">
        <text class="st0" transform="translate(893.9 243.56)"><tspan x="0" y="0">NB</tspan></text>
      </g>
    </g>
    <g class="st5">
      <g class="st5">
        <text class="st6" transform="translate(925.65 286.89)"><tspan x="0" y="0">NS</tspan></text>
      </g>
    </g>
    <g class="st5">
      <g class="st5">
        <text class="st1" transform="translate(939.41 223.44)"><tspan x="0" y="0">PE</tspan></text>
      </g>
    </g>
    <g class="st5">
      <g class="st5">
        <text class="st0" transform="translate(479.38 99.05)"><tspan x="0" y="0">NU</tspan></text>
      </g>
    </g>
    <g class="st5">
      <g class="st5">
        <text class="st6" transform="translate(891.62 160.11)"><tspan x="0" y="0">NL</tspan></text>
      </g>
    </g>
    <g class="st5">
      <g class="st5">
        <text class="st0" transform="translate(345.19 99.05)"><tspan x="0" y="0">NT</tspan></text>
      </g>
    </g>
    <g class="st5">
      <g class="st5">
        <text class="st0" transform="translate(191.27 99.05)"><tspan x="0" y="0">YT</tspan></text>
      </g>
    </g>
    <g class="st5">
      <g class="st5">
        <text class="st0" transform="translate(95.79 99.05)"><tspan x="0" y="0">AK</tspan></text>
      </g>
    </g>
    <g class="st5">
      <g class="st5">
        <text class="st9" transform="translate(235.78 618.16)"><tspan x="0" y="0">BN</tspan></text>
      </g>
    </g>
    <g class="st5">
      <g class="st5">
        <text class="st9" transform="translate(237.49 730.82)"><tspan x="0" y="0">BS</tspan></text>
      </g>
    </g>
    <g class="st5">
      <g class="st5">
        <text class="st1" transform="translate(434.68 755.82)"><tspan x="0" y="0">AG</tspan></text>
      </g>
    </g>
    <g class="st5">
      <g class="st5">
        <text class="st7" transform="translate(466.48 683.65)"><tspan x="0" y="0">NL</tspan></text>
      </g>
    </g>
    <g class="st5">
      <g class="st5">
        <text class="st1" transform="translate(467.65 783.42)"><tspan x="0" y="0">GJ</tspan></text>
      </g>
    </g>
    <g class="st5">
      <g class="st5">
        <text class="st1" transform="translate(488.44 783.42)"><tspan x="0" y="0">QE</tspan></text>
      </g>
    </g>
    <g class="st5">
      <g class="st5">
        <text class="st1" transform="translate(506.36 783.42)"><tspan x="0" y="0">HD</tspan></text>
      </g>
    </g>
    <g class="st5">
      <g class="st5">
        <text class="st1" transform="translate(504.34 841.19)"><tspan x="0" y="0">MR</tspan></text>
      </g>
    </g>
    <g class="st5">
      <g class="st5">
        <text class="st9" transform="translate(313.7 618.8)"><tspan x="0" y="0">SO</tspan></text>
      </g>
    </g>
    <g class="st5">
      <g class="st5">
        <text class="st9" transform="translate(364.17 630.72)"><tspan x="0" y="0">CI</tspan></text>
      </g>
    </g>
    <g class="st5">
      <g class="st5">
        <text class="st9" transform="translate(425.83 661.53)"><tspan x="0" y="0">CH</tspan></text>
      </g>
    </g>
    <g class="st5">
      <g class="st5">
        <text class="st7" transform="translate(493.15 697.86)"><tspan x="0" y="0">TA</tspan></text>
      </g>
    </g>
    <g class="st5">
      <g class="st5">
        <text class="st9" transform="translate(348.79 712.95)"><tspan x="0" y="0">SI</tspan></text>
      </g>
    </g>
    <g class="st5">
      <g class="st5">
        <text class="st9" transform="translate(381.99 713.26)"><tspan x="0" y="0">DG</tspan></text>
      </g>
    </g>
    <g class="st5">
      <g class="st5">
        <text class="st9" transform="translate(429.49 730.82)"><tspan x="0" y="0">ZA</tspan></text>
      </g>
    </g>
    <g class="st5">
      <g class="st5">
        <text class="st9" transform="translate(466.28 741.61)"><tspan x="0" y="0">SL</tspan></text>
      </g>
    </g>
    <g class="st5">
      <g class="st5">
        <text class="st9" transform="translate(534.77 784.87)"><tspan x="0" y="0">VC</tspan></text>
      </g>
    </g>
    <g class="st5">
      <g class="st5">
        <text class="st9" transform="translate(409.64 778.18)"><tspan x="0" y="0">JL</tspan></text>
      </g>
    </g>
    <g class="st5">
      <g class="st5">
        <text class="st7" transform="translate(363 765.05)"><tspan x="0" y="0">NA</tspan></text>
      </g>
    </g>
    <g class="st5">
      <g class="st5">
        <text class="st9" transform="translate(429.89 827.6)"><tspan x="0" y="0">MC</tspan></text>
      </g>
    </g>
    <g class="st5">
      <g class="st5">
        <text class="st9" transform="translate(464.79 874.62)"><tspan x="0" y="0">GE</tspan></text>
      </g>
    </g>
    <g class="st5">
      <g class="st5">
        <text class="st9" transform="translate(558.61 874.62)"><tspan x="0" y="0">OA</tspan></text>
      </g>
    </g>
    <g class="st5">
      <g class="st5">
        <text class="st9" transform="translate(621.11 874.62)"><tspan x="0" y="0">CS</tspan></text>
      </g>
    </g>
    <g class="st5">
      <g class="st5">
        <text class="st9" transform="translate(621.87 838.67)"><tspan x="0" y="0">TB</tspan></text>
      </g>
    </g>
    <g class="st5">
      <g class="st5">
        <text class="st9" transform="translate(678.75 827.6)"><tspan x="0" y="0">CP</tspan></text>
      </g>
    </g>
    <g class="st5">
      <g class="st5">
        <text class="st9" transform="translate(733.69 792.9)"><tspan x="0" y="0">YU</tspan></text>
      </g>
    </g>
    <g class="st5">
      <g class="st5">
        <text class="st7" transform="translate(722.71 823.45)"><tspan x="0" y="0">QI</tspan></text>
      </g>
    </g>
    <g class="st5">
      <g class="st5">
        <text class="st7" transform="translate(534.27 837.75)"><tspan x="0" y="0">PU</tspan></text>
      </g>
    </g>
    <g class="st5">
      <g class="st5">
        <text class="st7" transform="translate(526.34 813.49)"><tspan x="0" y="0">TL</tspan></text>
      </g>
    </g>
    <g class="st5">
      <g class="st5">
        <text class="st7" transform="translate(493.25 813.49)"><tspan x="0" y="0">MX</tspan></text>
      </g>
    </g>
    <g class="st5">
      <g class="st5">
        <text class="st7" transform="translate(371.94 812.67)"><tspan x="0" y="0">CL</tspan></text>
      </g>
    </g>
    <g class="st5">
      <g class="st5">
        <text class="st1" transform="translate(504.04 828.52)"><tspan x="0" y="0">CM</tspan></text>
      </g>
    </g>
  </g>
</svg>