<?xml version="1.0" encoding="utf-8"?>
<!-- Generator: Adobe Illustrator 26.5.0, SVG Export Plug-In . SVG Version: 6.00 Build 0)  -->
<svg version="1.1" id="Layer_1" xmlns="http://www.w3.org/2000/svg" xmlns:xlink="http://www.w3.org/1999/xlink" x="0px" y="0px"
	 viewBox="0 0 1618 1249" style="enable-background:new 0 0 1618 1249;" xml:space="preserve">
<style type="text/css">
	.st0{fill:#FFFFFF;stroke:#000000;stroke-width:3;stroke-miterlimit:10;}
	.st1{display:none;fill:#FFFFFF;stroke:#000000;stroke-width:3;stroke-miterlimit:10;}
	.st2{fill:none;}
	.st3{font-family:'LucidaSans-Demi';}
	.st4{font-size:18px;}
	.st5{font-size:12px;}
	.st6{font-size:14px;}
	.st7{fill:#88AEFF;}
	.st8{fill:#FF7E7E;}
	.st9{fill:#A8FFBE;}
	.st10{fill:#FFB57E;}
	.st11{fill:#FFFFFF;}
	.st12{fill:#FFE57E;}
	.st13{fill:none;stroke:#000000;stroke-width:2;stroke-miterlimit:10;}
	.st14{font-family:'ArialRoundedMTBold';}
	.st15{font-size:72px;}
</style>
<g id="地区">
	<path id="UK" class="st0" d="M558.5,616.43V706c0,1.66-1.34,3-3,3H476c-1.66,0-3-1.34-3-3V460.49c0-3.15,4.24-4.17,5.67-1.36
		l79.5,155.94C558.39,615.49,558.5,615.95,558.5,616.43z"/>
	<path id="UK_00000096773038719015062670000004004288675227892897_" class="st0" d="M405.33,540h36.92c1.66,0,3,1.34,3,3v36.84
		c0,1.66-1.34,3-3,3h-14.56c-1.05,0-2.02-0.55-2.56-1.44l-22.36-36.84C401.55,542.56,402.99,540,405.33,540z"/>
	<path id="Ireland" class="st0" d="M349.44,644.26l48.16-99.31c1.04-2.14,4.03-2.28,5.26-0.25l22.26,36.68
		c0.54,0.9,1.52,1.44,2.56,1.44h12.85c2.2,0,3.65,2.28,2.72,4.27l-27.94,59.73c-0.49,1.05-1.55,1.73-2.72,1.73h-60.45
		C349.92,648.57,348.47,646.26,349.44,644.26z"/>
	<path id="France" class="st0" d="M683.5,982.5h-207c-1.66,0-3-1.34-3-3v-221c0-1.66,1.34-3,3-3h207c1.66,0,3,1.34,3,3v221
		C686.5,981.16,685.16,982.5,683.5,982.5z"/>
	<path id="Belgium" class="st0" d="M683.5,774.5h-79c-1.66,0-3-1.34-3-3v-63c0-1.66,1.34-3,3-3h79c1.66,0,3,1.34,3,3v63
		C686.5,773.16,685.16,774.5,683.5,774.5z"/>
	<path id="Netherlands" class="st0" d="M683.5,642.5h-43c-1.66,0-3,1.34-3,3v73c0,1.66,1.34,3,3,3h43c1.66,0,3-1.34,3-3v-73
		C686.5,643.84,685.16,642.5,683.5,642.5z"/>
	<path id="Spain" class="st0" d="M577.5,1198.5h-221c-1.66,0-3-1.34-3-3v-210c0-1.66,1.34-3,3-3h221c1.66,0,3,1.34,3,3v210
		C580.5,1197.16,579.16,1198.5,577.5,1198.5z"/>
	<path id="Andorra" class="st0" d="M542.5,1001.5h-42c-1.66,0-3-1.34-3-3v-33c0-1.66,1.34-3,3-3h42c1.66,0,3,1.34,3,3v33
		C545.5,1000.16,544.16,1001.5,542.5,1001.5z"/>
	<path id="Portugal" class="st0" d="M415.5,1198.5h-59c-1.66,0-3-1.34-3-3v-125c0-1.66,1.34-3,3-3h59c1.66,0,3,1.34,3,3v125
		C418.5,1197.16,417.16,1198.5,415.5,1198.5z"/>
	<path id="Austria" class="st0" d="M764.5,767.5h152c1.66,0,3,1.34,3,3v104c0,1.66-1.34,3-3,3h-152c-1.66,0-3-1.34-3-3v-104
		C761.5,768.84,762.84,767.5,764.5,767.5z"/>
	<path id="Germany" class="st0" d="M845.5,842.5h-156c-1.66,0-3-1.34-3-3v-212c0-1.66,1.34-3,3-3h156c1.66,0,3,1.34,3,3v212
		C848.5,841.16,847.16,842.5,845.5,842.5z"/>
	<path id="Luxembourg" class="st0" d="M707.5,794.5h-42c-1.66,0-3-1.34-3-3v-33c0-1.66,1.34-3,3-3h42c1.66,0,3,1.34,3,3v33
		C710.5,793.16,709.16,794.5,707.5,794.5z"/>
	<path id="Switzerland" class="st0" d="M758.5,898.5h-100c-1.66,0-3-1.34-3-3v-50c0-1.66,1.34-3,3-3h100c1.66,0,3,1.34,3,3v50
		C761.5,897.16,760.16,898.5,758.5,898.5z"/>
	<path id="Italy" class="st0" d="M689.5,898.5h69c1.66,0,3-1.34,3-3v-15c0-1.66,1.34-3,3-3H816c1.66,0,3,1.34,3,3v44.89
		c0,0.7,0.24,1.38,0.69,1.91l129.75,156.71c1.11,1.34,0.85,3.35-0.58,4.36l-120.87,85.68c-2.39,1.69-1.19,5.45,1.73,5.45h86.45
		c2.53,0,3.92-2.94,2.32-4.9l-156.1-191c-0.57-0.7-1.42-1.1-2.32-1.1H689.5c-1.66,0-3-1.34-3-3v-78
		C686.5,899.84,687.84,898.5,689.5,898.5z"/>
	<path id="Slovenia" class="st0" d="M875.14,926.47H822c-1.66,0-3-1.34-3-3V880.5c0-1.66,1.34-3,3-3h90.87
		c2.58,0,3.96,3.04,2.25,4.98l-37.73,42.97C876.83,926.1,876.01,926.47,875.14,926.47z"/>
	<path id="Croatia" class="st0" d="M928.76,981.41l-50.37-52.96c-1.07-1.12-1.1-2.88-0.08-4.05l40.29-45.89
		c0.57-0.65,1.39-1.02,2.25-1.02h39.64c1.66,0,3,1.34,3,3v26.91c0,1.66-1.34,3-3,3h-34.46c-1.85,0-3.26,1.66-2.96,3.49l10.81,64.95
		C934.38,981.77,930.8,983.56,928.76,981.41z"/>
	<path id="Bosnia_and_Herzegovina" class="st0" d="M935.08,985.99l-12-72.09c-0.3-1.83,1.11-3.49,2.96-3.49h34.46c1.66,0,3,1.34,3,3
		v72.09c0,1.66-1.34,3-3,3h-22.46C936.58,988.5,935.32,987.44,935.08,985.99z"/>
	<path id="Denmark_00000152978937185391522830000000982450071633676435_" class="st0" d="M762.5,624.5h-49c-1.66,0-3-1.34-3-3v-102
		c0-1.66,1.34-3,3-3h49c1.66,0,3,1.34,3,3v102C765.5,623.16,764.16,624.5,762.5,624.5z"/>
	<path id="Denmark" class="st0" d="M805.5,601.5h-20c-1.66,0-3-1.34-3-3v-31c0-1.66,1.34-3,3-3h20c1.66,0,3,1.34,3,3v31
		C808.5,600.16,807.16,601.5,805.5,601.5z"/>
	<path id="Norway" class="st0" d="M933.5,451.5h-197c-1.66,0-3-1.34-3-3v-373c0-1.66,1.34-3,3-3h197c1.66,0,3,1.34,3,3v373
		C936.5,450.16,935.16,451.5,933.5,451.5z"/>
	<path id="Sweden" class="st0" d="M933.5,506.5h-103c-1.66,0-3-1.34-3-3v-343c0-1.66,1.34-3,3-3h103c1.66,0,3,1.34,3,3v343
		C936.5,505.16,935.16,506.5,933.5,506.5z"/>
	<path id="Finland" class="st0" d="M1078.5,373.5h-139c-1.66,0-3-1.34-3-3v-252c0-1.66,1.34-3,3-3h139c1.66,0,3,1.34,3,3v252
		C1081.5,372.16,1080.16,373.5,1078.5,373.5z"/>
	<path id="Estonia" class="st0" d="M1078.5,469.5h-78c-1.66,0-3-1.34-3-3v-61c0-1.66,1.34-3,3-3h78c1.66,0,3,1.34,3,3v61
		C1081.5,468.16,1080.16,469.5,1078.5,469.5z"/>
	<path id="Ukraine" class="st0" d="M1409.5,601.5h-373c-1.66,0-3,1.34-3,3v191c0,1.66,1.34,3,3,3h373c1.66,0,3-1.34,3-3v-191
		C1412.5,602.84,1411.16,601.5,1409.5,601.5z"/>
	<path id="Latvia" class="st0" d="M1078.5,469.5h-108c-1.66,0-3,1.34-3,3v48c0,1.66,1.34,3,3,3h108c1.66,0,3-1.34,3-3v-48
		C1081.5,470.84,1080.16,469.5,1078.5,469.5z"/>
	<path id="Belarus" class="st0" d="M1192.5,523.5h-156c-1.66,0-3,1.34-3,3v137c0,1.66,1.34,3,3,3h156c1.66,0,3-1.34,3-3v-137
		C1195.5,524.84,1194.16,523.5,1192.5,523.5z"/>
	<path id="Lithuania" class="st0" d="M1061.5,511.5h-91c-1.66,0-3,1.34-3,3v44c0,1.66,1.34,3,3,3h91c1.66,0,3-1.34,3-3v-44
		C1064.5,512.84,1063.16,511.5,1061.5,511.5z"/>
	<path id="Ukraine_00000089561160207137037110000013623068993263219844_" class="st0" d="M1371.5,807.5h-60c-1.66,0-3,1.34-3,3v36
		c0,1.66,1.34,3,3,3h60c1.66,0,3-1.34,3-3v-36C1374.5,808.84,1373.16,807.5,1371.5,807.5z"/>
	<path id="Poland" class="st0" d="M1030.5,749.5h-179c-1.66,0-3-1.34-3-3v-182c0-1.66,1.34-3,3-3h179c1.66,0,3,1.34,3,3v182
		C1033.5,748.16,1032.16,749.5,1030.5,749.5z"/>
	<path id="Czechia" class="st0" d="M916.5,767.5h-95c-1.66,0-3-1.34-3-3v-50c0-1.66,1.34-3,3-3h95c1.66,0,3,1.34,3,3v50
		C919.5,766.16,918.16,767.5,916.5,767.5z"/>
	<path id="Slovakia" class="st0" d="M1030.5,749.5h-108c-1.66,0-3,1.34-3,3v30c0,1.66,1.34,3,3,3h108c1.66,0,3-1.34,3-3v-30
		C1033.5,750.84,1032.16,749.5,1030.5,749.5z"/>
	<path id="Hungary" class="st0" d="M1030.5,877.5h-123c-1.66,0-3-1.34-3-3v-86c0-1.66,1.34-3,3-3h123c1.66,0,3,1.34,3,3v86
		C1033.5,876.16,1032.16,877.5,1030.5,877.5z"/>
	<path id="Serbia" class="st0" d="M1068.5,1001.5h-102c-1.66,0-3-1.34-3-3v-118c0-1.66,1.34-3,3-3h102c1.66,0,3,1.34,3,3v118
		C1071.5,1000.16,1070.16,1001.5,1068.5,1001.5z"/>
	<path id="Montenegro" class="st0" d="M994.5,1001.5h-40c-1.66,0-3-1.34-3-3v-26c0-1.66,1.34-3,3-3h40c1.66,0,3,1.34,3,3v26
		C997.5,1000.16,996.16,1001.5,994.5,1001.5z"/>
	<rect x="997.5" y="969.5" class="st1" width="36" height="32"/>
	<path id="Greece" class="st0" d="M1036.5,1001.5h134.59c1.66,0,3,1.34,3,3v14.36c0,1.02-0.52,1.97-1.38,2.52l-78.41,50.32
		c-1.49,0.96-1.83,3-0.73,4.39l46.38,58.38c1,1.26,0.83,3.09-0.39,4.14l-41.72,35.87c-1.28,1.1-3.21,0.93-4.28-0.38l-59.38-72.78
		c-0.44-0.54-0.68-1.21-0.68-1.9v-59.94v-35C1033.5,1002.84,1034.84,1001.5,1036.5,1001.5z"/>
	<path id="North_Macedonia" class="st0" d="M1036.5,1039.5h32c1.66,0,3-1.34,3-3v-51c0-1.66-1.34-3-3-3h-32c-1.66,0-3,1.34-3,3v51
		C1033.5,1038.16,1034.84,1039.5,1036.5,1039.5z"/>
	<path id="Albania" class="st0" d="M1030.5,1001.5h-40c-1.66,0-3,1.34-3,3v70c0,1.66,1.34,3,3,3h40c1.66,0,3-1.34,3-3v-70
		C1033.5,1002.84,1032.16,1001.5,1030.5,1001.5z"/>
	<path id="France_00000062891810610749560170000006346880724257285053_" class="st0" d="M742.5,1043.5h-21c-1.66,0-3-1.34-3-3v-40
		c0-1.66,1.34-3,3-3h21c1.66,0,3,1.34,3,3v40C745.5,1042.16,744.16,1043.5,742.5,1043.5z"/>
	<path id="Italy_00000107564510811685660580000015027859580549180053_" class="st0" d="M746.5,1132.5h-35c-1.66,0-3-1.34-3-3v-63
		c0-1.66,1.34-3,3-3h35c1.66,0,3,1.34,3,3v63C749.5,1131.16,748.16,1132.5,746.5,1132.5z"/>
	<path id="Bulgaria" class="st0" d="M1223.5,1001.5h-149c-1.66,0-3-1.34-3-3v-73c0-1.66,1.34-3,3-3h149c1.66,0,3,1.34,3,3v73
		C1226.5,1000.16,1225.16,1001.5,1223.5,1001.5z"/>
	<path id="Romania" class="st0" d="M1223.5,922.5h-187c-1.66,0-3-1.34-3-3v-118c0-1.66,1.34-3,3-3h187c1.66,0,3,1.34,3,3v118
		C1226.5,921.16,1225.16,922.5,1223.5,922.5z"/>
	<path id="Moldova" class="st0" d="M1223.5,845.5h-66c-1.66,0-3-1.34-3-3v-69c0-1.66,1.34-3,3-3h66c1.66,0,3,1.34,3,3v69
		C1226.5,844.16,1225.16,845.5,1223.5,845.5z"/>
	<path id="Liechtenstein" class="st0" d="M779.5,877.5h-42c-1.66,0-3-1.34-3-3v-29c0-1.66,1.34-3,3-3h42c1.66,0,3,1.34,3,3v29
		C782.5,876.16,781.16,877.5,779.5,877.5z"/>
	<path id="Turkey" class="st0" d="M1174.09,1004.5v54.4c0,2.84,3.58,4.09,5.35,1.87l46.41-58.44c0.42-0.53,0.65-1.19,0.65-1.87
		V955.5c0-1.66,1.34-3,3-3h331c1.66,0,3,1.34,3,3v204.01c0,1.65-1.34,3-2.99,3l-331,0.67c-1.66,0-3.01-1.34-3.01-3V1004.5
		c0-1.66-1.34-3-3-3h-46.41C1175.43,1001.5,1174.09,1002.84,1174.09,1004.5z"/>
	<path id="Cyprus" class="st0" d="M1384.23,1220.5h-26.73c-1.66,0-3-1.34-3-3v-8.08c0-1.14,0.65-2.19,1.68-2.69l50.15-24.61
		c2.8-1.37,5.58,1.91,3.76,4.44l-23.43,32.69C1386.1,1220.03,1385.2,1220.5,1384.23,1220.5z"/>
	<path id="Vantican_City" class="st0" d="M832.5,1058.5h-42c-1.66,0-3-1.34-3-3v-33c0-1.66,1.34-3,3-3h42c1.66,0,3,1.34,3,3v33
		C835.5,1057.16,834.16,1058.5,832.5,1058.5z"/>
	<path id="San_Marino" class="st0" d="M869.5,992.5h-42c-1.66,0-3-1.34-3-3v-33c0-1.66,1.34-3,3-3h42c1.66,0,3,1.34,3,3v33
		C872.5,991.16,871.16,992.5,869.5,992.5z"/>
	<path id="Iceland" class="st0" d="M399.5,269.5h-108c-1.66,0-3-1.34-3-3v-66c0-1.66,1.34-3,3-3h108c1.66,0,3,1.34,3,3v66
		C402.5,268.16,401.16,269.5,399.5,269.5z"/>
	<path id="Greece_00000039120318528496050390000001722774461469531296_" class="st0" d="M1219.5,1222.5h-77c-1.66,0-3-1.34-3-3v-8
		c0-1.66,1.34-3,3-3h77c1.66,0,3,1.34,3,3v8C1222.5,1221.16,1221.16,1222.5,1219.5,1222.5z"/>
	<path id="Georgia" class="st0" d="M1498.5,952.5h-83c-1.66,0-3-1.34-3-3v-86c0-1.66,1.34-3,3-3h83c1.66,0,3,1.34,3,3v86
		C1501.5,951.16,1500.16,952.5,1498.5,952.5z"/>
	<path id="Azerbaijan" class="st0" d="M1504.5,952.5h56c1.66,0,3-1.34,3-3v-86c0-1.66-1.34-3-3-3h-56c-1.66,0-3,1.34-3,3v86
		C1501.5,951.16,1502.84,952.5,1504.5,952.5z"/>
	<path id="Armenia" class="st0" d="M1514.5,952.5h-67c-1.66,0-3-1.34-3-3v-40c0-1.66,1.34-3,3-3h67c1.66,0,3,1.34,3,3v40
		C1517.5,951.16,1516.16,952.5,1514.5,952.5z"/>
	<path id="Greenland" class="st0" d="M381.5,14.5h-362c-1.66,0-3,1.34-3,3v110c0,1.66,1.34,3,3,3h362c1.66,0,3-1.34,3-3v-110
		C384.5,15.84,383.16,14.5,381.5,14.5z"/>
	<g id="Russia_00000114044153275607347460000015326427561664358548_">
		<path id="Russia" class="st0" d="M1195.5,598.5v-72c0-1.66-1.34-3-3-3h-108c-1.66,0-3-1.34-3-3v-402c0-1.66-1.34-3-3-3h-139
			c-1.66,0-3-1.34-3-3V38.29c0-1.66,1.36-3.01,3.02-3l621,4.19c1.65,0.01,2.98,1.35,2.98,3V857.5c0,1.66-1.34,3-3,3h-145
			c-1.66,0-3-1.34-3-3v-253c0-1.66-1.34-3-3-3h-211C1196.84,601.5,1195.5,600.16,1195.5,598.5z"/>
		<path id="Russia_00000006694109900938651660000004983022586525839035_" class="st0" d="M1006.5,582.5h-46c-1.66,0-3-1.34-3-3v-26
			c0-1.66,1.34-3,3-3h46c1.66,0,3,1.34,3,3v26C1009.5,581.16,1008.16,582.5,1006.5,582.5z"/>
	</g>
</g>
<g id="Layer_3">
	<rect x="488.9" y="621.89" class="st2" width="53.61" height="47.4"/>
	<text transform="matrix(1 0 0 1 502.6885 652.5293)" class="st3 st4">UK</text>
	<rect x="369.33" y="590.33" class="st2" width="53.61" height="47.4"/>
	<text transform="matrix(1 0 0 1 381.0717 604.2084)"><tspan x="0" y="0" class="st3 st4">Ire</tspan><tspan x="24.7" y="0" class="st3 st4">-</tspan><tspan x="-5.03" y="21.6" class="st3 st4">land</tspan></text>
	<rect x="295.05" y="215.06" class="st2" width="103.95" height="35.94"/>
	<text transform="matrix(1 0 0 1 313.8872 239.9681)" class="st3 st4">Iceland</text>
	<rect x="528.05" y="845.46" class="st2" width="103.95" height="35.94"/>
	<text transform="matrix(1 0 0 1 549.5029 870.3668)" class="st3 st4">France</text>
	<rect x="448.05" y="1059.46" class="st2" width="103.95" height="35.94"/>
	<text transform="matrix(1 0 0 1 474.7939 1084.3668)" class="st3 st4">Spain</text>
	<rect x="360" y="1116.46" class="st2" width="52" height="35.94"/>
	<text transform="matrix(1 0 0 1 367.9297 1130.566)"><tspan x="0" y="0" class="st3 st4">Por</tspan><tspan x="30.72" y="0" class="st3 st4">-</tspan><tspan x="-5.64" y="21.6" class="st3 st4">tugal</tspan></text>
	<rect x="699" y="711.46" class="st2" width="111" height="35.94"/>
	<text transform="matrix(1 0 0 1 713.249 736.3658)" class="st3 st4">Germany</text>
	<rect x="701.05" y="921.46" class="st2" width="103.95" height="35.94"/>
	<text transform="matrix(1 0 0 1 732.9312 946.3668)" class="st3 st4">Italy</text>
	<rect x="125.05" y="54.46" class="st2" width="149.95" height="35.94"/>
	<text transform="matrix(1 0 0 1 152.6758 79.3658)" class="st3 st4">Greenland</text>
	<rect x="772.05" y="97.46" class="st2" width="103.95" height="35.94"/>
	<text transform="matrix(1 0 0 1 788.9678 122.3668)" class="st3 st4">Norway</text>
	<rect x="830.05" y="310.46" class="st2" width="103.95" height="35.94"/>
	<text transform="matrix(1 0 0 1 846.6997 335.3668)" class="st3 st4">Sweden</text>
	<rect x="891.05" y="632.46" class="st2" width="103.95" height="35.94"/>
	<text transform="matrix(1 0 0 1 911.668 657.3668)" class="st3 st4">Poland</text>
	<rect x="758.05" y="528.46" class="st2" width="115.95" height="35.94"/>
	<text transform="matrix(1 0 0 1 773.9009 553.3658)" class="st3 st4">Denmark</text>
	<rect x="817.44" y="722.06" class="st2" width="103.95" height="35.94"/>
	<text transform="matrix(1 0 0 1 833.4893 746.9681)" class="st3 st4">Czechia</text>
	<rect x="924.44" y="749.06" class="st2" width="103.95" height="35.94"/>
	<text transform="matrix(1 0 0 1 938.0503 773.9681)" class="st3 st4">Slovakia</text>
	<rect x="564" y="608.06" class="st2" width="126.38" height="35.94"/>
	<text transform="matrix(1 0 0 1 570.8979 632.9681)" class="st3 st4">Netherlands</text>
	<rect x="592.44" y="722.06" class="st2" width="103.95" height="35.94"/>
	<text transform="matrix(1 0 0 1 607.0391 746.9681)" class="st3 st4">Belgium</text>
	<rect x="489.08" y="928.06" class="st2" width="126.38" height="35.94"/>
	<text transform="matrix(1 0 0 1 514.5536 952.9681)" class="st3 st4">Andorra</text>
	<rect x="911.08" y="813.06" class="st2" width="126.38" height="35.94"/>
	<text transform="matrix(1 0 0 1 934.8661 837.9681)" class="st3 st4">Hungary</text>
	<rect x="784.08" y="842.06" class="st2" width="126.38" height="35.94"/>
	<text transform="matrix(1 0 0 1 813.6932 866.9681)" class="st3 st4">Austria</text>
	<rect x="660.08" y="854.06" class="st2" width="72.92" height="35.94"/>
	<text transform="matrix(1 0 0 1 674.35 868.1683)"><tspan x="0" y="0" class="st3 st4">Swit</tspan><tspan x="38.96" y="0" class="st3 st4">-</tspan><tspan x="-12.58" y="21.6" class="st3 st4">zerland</tspan></text>
	<rect x="695.08" y="810.06" class="st2" width="126.38" height="35.94"/>
	<text transform="matrix(1 0 0 1 728.2704 834.9681)" class="st3 st4">Liecht.</text>
	<rect x="623.08" y="756.06" class="st2" width="126.38" height="35.94"/>
	<text transform="matrix(1 0 0 1 667.5907 780.9681)" class="st3 st4">Lux.</text>
	<rect x="733.08" y="1050.06" class="st2" width="126.38" height="35.94"/>
	<text transform="matrix(1 0 0 1 769.5721 1072.6556)" class="st3 st5">Vantican</text>
	<rect x="817.08" y="955.06" class="st2" width="62.92" height="35.94"/>
	<text transform="matrix(1 0 0 1 837.6469 970.4554)"><tspan x="0" y="0" class="st3 st5">San </tspan><tspan x="-10.53" y="14.4" class="st3 st5">Marino</tspan></text>
	<rect x="951.08" y="233.06" class="st2" width="126.38" height="35.94"/>
	<text transform="matrix(1 0 0 1 980.1791 257.9681)" class="st3 st4">Finland</text>
	<rect x="1267.08" y="317.06" class="st2" width="126.38" height="35.94"/>
	<text transform="matrix(1 0 0 1 1299.7606 341.9681)" class="st3 st4">Russia</text>
	<rect x="976.08" y="418.06" class="st2" width="126.38" height="35.94"/>
	<text transform="matrix(1 0 0 1 1005.2582 442.9681)" class="st3 st4">Estonia</text>
	<rect x="963.08" y="472.06" class="st2" width="126.38" height="35.94"/>
	<text transform="matrix(1 0 0 1 998.5468 496.9681)" class="st3 st4">Latvia</text>
	<rect x="955.08" y="518.06" class="st2" width="126.38" height="35.94"/>
	<text transform="matrix(1 0 0 1 975.2274 542.9681)" class="st3 st4">Lithuania</text>
	<rect x="1051.08" y="583.06" class="st2" width="126.38" height="35.94"/>
	<text transform="matrix(1 0 0 1 1080.0253 607.9681)" class="st3 st4">Belarus</text>
	<rect x="1163.08" y="687.06" class="st2" width="126.38" height="35.94"/>
	<text transform="matrix(1 0 0 1 1190.4608 711.9681)" class="st3 st4">Ukraine</text>
	<rect x="1073.08" y="845.06" class="st2" width="126.38" height="35.94"/>
	<text transform="matrix(1 0 0 1 1096.1718 869.9681)" class="st3 st4">Romania</text>
	<rect x="1163.08" y="792.06" class="st2" width="57.92" height="35.94"/>
	<text transform="matrix(1 0 0 1 1172.4862 806.1683)"><tspan x="0" y="0" class="st3 st4">Mol</tspan><tspan x="33.69" y="0" class="st3 st4">-</tspan><tspan x="-2.79" y="21.6" class="st3 st4">dova</tspan></text>
	<rect x="1091.08" y="946.06" class="st2" width="126.38" height="35.94"/>
	<text transform="matrix(1 0 0 1 1116.2328 970.9681)" class="st3 st4">Bulgaria</text>
	<rect x="955.08" y="921.06" class="st2" width="126.38" height="35.94"/>
	<text transform="matrix(1 0 0 1 989.5887 945.9681)" class="st3 st4">Serbia</text>
	<rect x="796.08" y="885.06" class="st2" width="126.38" height="35.94"/>
	<text transform="matrix(1 0 0 1 829.287 908.4261)" class="st3 st6">Slovenia</text>
	<rect x="871.08" y="879.06" class="st2" width="126.38" height="35.94"/>
	<text transform="matrix(1 0 0 1 908.2928 902.4261)" class="st3 st6">Croatia</text>
	<rect x="882.08" y="919.06" class="st2" width="126.38" height="35.94"/>
	<text transform="matrix(1 0 0 1 929.6581 943.9681)" class="st3 st4">BiH</text>
	<rect x="912.08" y="967.06" class="st2" width="126.38" height="35.94"/>
	<text transform="matrix(1 0 0 1 956.5424 991.9681)" class="st3 st4">MtN</text>
	<rect x="930.08" y="1070.06" class="st2" width="126.38" height="35.94"/>
	<text transform="matrix(1 0 0 1 958.3397 1094.9681)" class="st3 st4">Albania</text>
	<rect x="990.08" y="997.06" class="st2" width="126.38" height="35.94"/>
	<text transform="matrix(1 0 0 1 1037.3519 1020.4261)" class="st3 st6">Mac.</text>
	<rect x="1027.08" y="1102.06" class="st2" width="126.38" height="35.94"/>
	<text transform="matrix(1 0 0 1 1058.8641 1126.9681)" class="st3 st4">Greece</text>
	<rect x="1330.08" y="1040.06" class="st2" width="126.38" height="35.94"/>
	<text transform="matrix(1 0 0 1 1360.849 1064.9681)" class="st3 st4">Turkey</text>
	<rect x="1397.08" y="1193.06" class="st2" width="126.38" height="35.94"/>
	<text transform="matrix(1 0 0 1 1427.5634 1217.9681)" class="st3 st4">Cyprus</text>
	<rect x="1397.08" y="867.06" class="st2" width="126.38" height="35.94"/>
	<text transform="matrix(1 0 0 1 1424.2982 891.9681)" class="st3 st4">Georgia</text>
	<rect x="1471.08" y="869.06" class="st2" width="126.38" height="35.94"/>
	<text transform="matrix(1 0 0 1 1510.7435 893.9681)" class="st3 st4">Azer.</text>
	<rect x="1418.08" y="911.06" class="st2" width="126.38" height="35.94"/>
	<text transform="matrix(1 0 0 1 1451.0614 934.4261)" class="st3 st6">Armenia</text>
</g>
<g id="Layer_4">
	<path class="st7" d="M56.93,870.03h216.1c1.66,0,3,1.34,3,3v26c0,1.66-1.34,3-3,3H56.93c-1.66,0-3-1.34-3-3v-26
		C53.93,871.37,55.27,870.03,56.93,870.03z"/>
	<path class="st8" d="M56.93,742.03h216.1c1.66,0,3,1.34,3,3v26c0,1.66-1.34,3-3,3H56.93c-1.66,0-3-1.34-3-3v-26
		C53.93,743.37,55.27,742.03,56.93,742.03z"/>
	<path class="st9" d="M56.93,838.03h216.1c1.66,0,3,1.34,3,3v26c0,1.66-1.34,3-3,3H56.93c-1.66,0-3-1.34-3-3v-26
		C53.93,839.37,55.27,838.03,56.93,838.03z"/>
	<path class="st10" d="M56.93,774.03h216.1c1.66,0,3,1.34,3,3v26c0,1.66-1.34,3-3,3H56.93c-1.66,0-3-1.34-3-3v-26
		C53.93,775.37,55.27,774.03,56.93,774.03z"/>
	<path class="st11" d="M56.93,902.03h216.1c1.66,0,3,1.34,3,3v26c0,1.66-1.34,3-3,3H56.93c-1.66,0-3-1.34-3-3v-26
		C53.93,903.37,55.27,902.03,56.93,902.03z"/>
	<path class="st12" d="M56.93,806.03h216.1c1.66,0,3,1.34,3,3v26c0,1.66-1.34,3-3,3H56.93c-1.66,0-3-1.34-3-3v-26
		C53.93,807.37,55.27,806.03,56.93,806.03z"/>
	<path class="st13" d="M56.93,742.03h216.1c1.66,0,3,1.34,3,3v186c0,1.66-1.34,3-3,3H56.93c-1.66,0-3-1.34-3-3v-186
		C53.93,743.37,55.27,742.03,56.93,742.03z"/>
	<path class="st2" d="M64.43,749.63h90.2c1.66,0,3,1.34,3,3v10.6c0,1.66-1.34,3-3,3h-90.2c-1.66,0-3-1.34-3-3v-10.6
		C61.43,750.97,62.77,749.63,64.43,749.63z"/>
	<text transform="matrix(1 0 0 1 61.4438 764.5048)" class="st14 st4">Lived here </text>
	<path class="st2" d="M65.03,781.83h117.9c1.66,0,3,1.34,3,3v10.6c0,1.66-1.34,3-3,3H65.03c-1.66,0-3-1.34-3-3v-10.6
		C62.03,783.17,63.37,781.83,65.03,781.83z"/>
	<text transform="matrix(1 0 0 1 61.9937 796.6229)" class="st14 st4">Stayed here </text>
	<path class="st2" d="M65.43,813.83h117.9c1.66,0,3,1.34,3,3v10.6c0,1.66-1.34,3-3,3H65.43c-1.66,0-3-1.34-3-3v-10.6
		C62.43,815.17,63.77,813.83,65.43,813.83z"/>
	<text transform="matrix(1 0 0 1 62.4503 828.6221)" class="st14 st4">Visited here </text>
	<path class="st2" d="M64.43,845.83h117.9c1.66,0,3,1.34,3,3v10.6c0,1.66-1.34,3-3,3H64.43c-1.66,0-3-1.34-3-3v-10.6
		C61.43,847.17,62.77,845.83,64.43,845.83z"/>
	<text transform="matrix(1 0 0 1 61.4503 860.6222)" class="st14 st4">Alighted here </text>
	<path class="st2" d="M65.43,877.83h117.9c1.66,0,3,1.34,3,3v10.6c0,1.66-1.34,3-3,3H65.43c-1.66,0-3-1.34-3-3v-10.6
		C62.43,879.17,63.77,877.83,65.43,877.83z"/>
	<text transform="matrix(1 0 0 1 62.4503 892.6222)" class="st14 st4">Passed here </text>
	<path class="st2" d="M65.43,909.83h165.5c1.66,0,3,1.34,3,3v10.6c0,1.66-1.34,3-3,3H65.43c-1.66,0-3-1.34-3-3v-10.6
		C62.43,911.17,63.77,909.83,65.43,909.83z"/>
	<text transform="matrix(1 0 0 1 62.4503 924.6222)" class="st14 st4">Never been here </text>
	<path class="st2" d="M209.33,750.23h53.4c1.66,0,3,1.34,3,3v10.6c0,1.66-1.34,3-3,3h-53.4c-1.66,0-3-1.34-3-3v-10.6
		C206.33,751.57,207.67,750.23,209.33,750.23z"/>
	<text transform="matrix(1 0 0 1 232.9265 765.0421)" class="st14 st4">5 pt </text>
	<path class="st2" d="M209.33,781.23h53.4c1.66,0,3,1.34,3,3v10.6c0,1.66-1.34,3-3,3h-53.4c-1.66,0-3-1.34-3-3v-10.6
		C206.33,782.57,207.67,781.23,209.33,781.23z"/>
	<text transform="matrix(1 0 0 1 232.954 796.0421)" class="st14 st4">4 pt </text>
	<path class="st2" d="M210.33,813.23h53.4c1.66,0,3,1.34,3,3v10.6c0,1.66-1.34,3-3,3h-53.4c-1.66,0-3-1.34-3-3v-10.6
		C207.33,814.57,208.67,813.23,210.33,813.23z"/>
	<text transform="matrix(1 0 0 1 233.954 828.0421)" class="st14 st4">3 pt </text>
	<path class="st2" d="M210.33,845.23h53.4c1.66,0,3,1.34,3,3v10.6c0,1.66-1.34,3-3,3h-53.4c-1.66,0-3-1.34-3-3v-10.6
		C207.33,846.57,208.67,845.23,210.33,845.23z"/>
	<text transform="matrix(1 0 0 1 233.954 860.0421)" class="st14 st4">2 pt </text>
	<path class="st2" d="M210.33,877.23h53.4c1.66,0,3,1.34,3,3v10.6c0,1.66-1.34,3-3,3h-53.4c-1.66,0-3-1.34-3-3v-10.6
		C207.33,878.57,208.67,877.23,210.33,877.23z"/>
	<text transform="matrix(1 0 0 1 233.954 892.0421)" class="st14 st4">1 pt </text>
	<path class="st2" d="M210.33,909.23h53.4c1.66,0,3,1.34,3,3v10.6c0,1.66-1.34,3-3,3h-53.4c-1.66,0-3-1.34-3-3v-10.6
		C207.33,910.57,208.67,909.23,210.33,909.23z"/>
	<text transform="matrix(1 0 0 1 233.954 924.0421)" class="st14 st4">0 pt </text>
</g>
<text transform="matrix(1 0 0 1 54.171 392.5391)" class="st3 st15">EU Level 0</text>
</svg>
