<?xml version="1.0" encoding="UTF-8" standalone="no"?>
<!-- Generator: Adobe Illustrator 26.5.0, SVG Export Plug-In . SVG Version: 6.00 Build 0)  -->

<svg
   version="1.1"
   id="Layer_1"
   x="0px"
   y="0px"
   viewBox="0 0 1618 1249"
   style="enable-background:new 0 0 1618 1249;"
   xml:space="preserve"
   sodipodi:docname="eu.svg"
   inkscape:version="1.1.2 (b8e25be833, 2022-02-05)"
   xmlns:inkscape="http://www.inkscape.org/namespaces/inkscape"
   xmlns:sodipodi="http://sodipodi.sourceforge.net/DTD/sodipodi-0.dtd"
   xmlns="http://www.w3.org/2000/svg"
   xmlns:svg="http://www.w3.org/2000/svg"><defs
   id="defs355" /><sodipodi:namedview
   id="namedview353"
   pagecolor="#505050"
   bordercolor="#eeeeee"
   borderopacity="1"
   inkscape:pageshadow="0"
   inkscape:pageopacity="0"
   inkscape:pagecheckerboard="0"
   showgrid="false"
   inkscape:zoom="7.9078203"
   inkscape:cx="991.92948"
   inkscape:cy="999.89627"
   inkscape:window-width="3840"
   inkscape:window-height="2054"
   inkscape:window-x="-11"
   inkscape:window-y="-11"
   inkscape:window-maximized="1"
   inkscape:current-layer="Layer_1" />
<style
   type="text/css"
   id="style2">
	.st0{fill:#FFFFFF;stroke:#000000;stroke-width:3;stroke-miterlimit:10;}
	.st1{display:none;fill:#FFFFFF;stroke:#000000;stroke-width:3;stroke-miterlimit:10;}
	.st2{fill:#FFFFFF;}
	.st3{fill:#88AEFF;}
	.st4{fill:#FF7E7E;}
	.st5{fill:#A8FFBE;}
	.st6{fill:#FFB57E;}
	.st7{fill:#D6BEFF;}
	.st8{fill:#FFE57E;}
	.st9{fill:none;stroke:#000000;stroke-width:2;stroke-miterlimit:10;}
	.st10{fill:none;}
	.st11{font-family:'ArialRoundedMTBold';}
	.st12{font-size:18px;}
	.st13{font-family:'LucidaSans-Demi';}
	.st14{font-size:72px;}
	.st15{font-size:30px;}
	.st16{font-size:25px;}
	.st17{font-size:22px;}
	.st18{font-size:28px;}
	.st19{font-size:26px;}
	.st20{font-size:16px;}
	.st21{font-size:20px;}
	.st22{font-size:24px;}
	.st23{font-size:14px;}
	.st24{font-size:12px;}
</style>
<g
   id="地区">
	<path
   id="UK"
   class="st0"
   d="M558.5,616.4V706c0,1.7-1.3,3-3,3H476c-1.7,0-3-1.3-3-3V460.5c0-3.1,4.2-4.2,5.7-1.4L558.2,615   C558.4,615.5,558.5,616,558.5,616.4z" />
	<path
   id="UK_00000096773038719015062670000004004288675227892897_"
   class="st0"
   d="M405.3,540h36.9c1.7,0,3,1.3,3,3v36.8   c0,1.7-1.3,3-3,3h-14.6c-1,0-2-0.5-2.6-1.4l-22.4-36.8C401.5,542.6,403,540,405.3,540z" />
	<path
   id="Ireland"
   class="st0"
   d="M349.4,644.3l48.2-99.3c1-2.1,4-2.3,5.3-0.2l22.3,36.7c0.5,0.9,1.5,1.4,2.6,1.4h12.9   c2.2,0,3.6,2.3,2.7,4.3l-27.9,59.7c-0.5,1-1.5,1.7-2.7,1.7h-60.5C349.9,648.6,348.5,646.3,349.4,644.3z" />
	<path
   id="France"
   class="st0"
   d="M683.5,982.5h-207c-1.7,0-3-1.3-3-3v-221c0-1.7,1.3-3,3-3h207c1.7,0,3,1.3,3,3v221   C686.5,981.2,685.2,982.5,683.5,982.5z" />
	<path
   id="Belgium"
   class="st0"
   d="M683.5,774.5h-79c-1.7,0-3-1.3-3-3v-63c0-1.7,1.3-3,3-3h79c1.7,0,3,1.3,3,3v63   C686.5,773.2,685.2,774.5,683.5,774.5z" />
	<path
   id="Netherlands"
   class="st0"
   d="M683.5,642.5h-43c-1.7,0-3,1.3-3,3v73c0,1.7,1.3,3,3,3h43c1.7,0,3-1.3,3-3v-73   C686.5,643.8,685.2,642.5,683.5,642.5z" />
	<path
   id="Spain"
   class="st0"
   d="M577.5,1198.5h-221c-1.7,0-3-1.3-3-3v-210c0-1.7,1.3-3,3-3h221c1.7,0,3,1.3,3,3v210   C580.5,1197.2,579.2,1198.5,577.5,1198.5z" />
	<path
   id="Andorra"
   class="st0"
   d="M542.5,1001.5h-42c-1.7,0-3-1.3-3-3v-33c0-1.7,1.3-3,3-3h42c1.7,0,3,1.3,3,3v33   C545.5,1000.2,544.2,1001.5,542.5,1001.5z" />
	<path
   id="Portugal"
   class="st0"
   d="M415.5,1198.5h-59c-1.7,0-3-1.3-3-3v-125c0-1.7,1.3-3,3-3h59c1.7,0,3,1.3,3,3v125   C418.5,1197.2,417.2,1198.5,415.5,1198.5z" />
	<path
   id="Austria"
   class="st0"
   d="M764.5,767.5h152c1.7,0,3,1.3,3,3v104c0,1.7-1.3,3-3,3h-152c-1.7,0-3-1.3-3-3v-104   C761.5,768.8,762.8,767.5,764.5,767.5z" />
	<path
   id="Germany"
   class="st0"
   d="M845.5,842.5h-156c-1.7,0-3-1.3-3-3v-212c0-1.7,1.3-3,3-3h156c1.7,0,3,1.3,3,3v212   C848.5,841.2,847.2,842.5,845.5,842.5z" />
	<path
   id="Luxembourg"
   class="st0"
   d="M707.5,794.5h-42c-1.7,0-3-1.3-3-3v-33c0-1.7,1.3-3,3-3h42c1.7,0,3,1.3,3,3v33   C710.5,793.2,709.2,794.5,707.5,794.5z" />
	<path
   id="Switzerland"
   class="st0"
   d="M758.5,898.5h-100c-1.7,0-3-1.3-3-3v-50c0-1.7,1.3-3,3-3h100c1.7,0,3,1.3,3,3v50   C761.5,897.2,760.2,898.5,758.5,898.5z" />
	<path
   id="Italy"
   class="st0"
   d="M689.5,898.5h69c1.7,0,3-1.3,3-3v-15c0-1.7,1.3-3,3-3H816c1.7,0,3,1.3,3,3v44.9   c0,0.7,0.2,1.4,0.7,1.9L949.4,1084c1.1,1.3,0.8,3.3-0.6,4.4L828,1174.1c-2.4,1.7-1.2,5.4,1.7,5.4h86.5c2.5,0,3.9-2.9,2.3-4.9   l-156.1-191c-0.6-0.7-1.4-1.1-2.3-1.1h-70.6c-1.7,0-3-1.3-3-3v-78C686.5,899.8,687.8,898.5,689.5,898.5z" />
	<path
   id="Slovenia"
   class="st0"
   d="M875.1,926.5H822c-1.7,0-3-1.3-3-3v-43c0-1.7,1.3-3,3-3h90.9c2.6,0,4,3,2.2,5l-37.7,43   C876.8,926.1,876,926.5,875.1,926.5z" />
	<path
   id="Croatia"
   class="st0"
   d="M928.8,981.4l-50.4-53c-1.1-1.1-1.1-2.9-0.1-4l40.3-45.9c0.6-0.7,1.4-1,2.2-1h39.6   c1.7,0,3,1.3,3,3v26.9c0,1.7-1.3,3-3,3H926c-1.8,0-3.3,1.7-3,3.5l10.8,65C934.4,981.8,930.8,983.6,928.8,981.4z" />
	<path
   id="Bosnia_and_Herzegovina"
   class="st0"
   d="M935.1,986l-12-72.1c-0.3-1.8,1.1-3.5,3-3.5h34.5c1.7,0,3,1.3,3,3v72.1   c0,1.7-1.3,3-3,3H938C936.6,988.5,935.3,987.4,935.1,986z" />
	<path
   id="Denmark_00000152978937185391522830000000982450071633676435_"
   class="st0"
   d="M762.5,624.5h-49c-1.7,0-3-1.3-3-3v-102   c0-1.7,1.3-3,3-3h49c1.7,0,3,1.3,3,3v102C765.5,623.2,764.2,624.5,762.5,624.5z" />
	<path
   id="Denmark"
   class="st0"
   d="M805.5,601.5h-20c-1.7,0-3-1.3-3-3v-31c0-1.7,1.3-3,3-3h20c1.7,0,3,1.3,3,3v31   C808.5,600.2,807.2,601.5,805.5,601.5z" />
	<path
   id="Norway"
   class="st0"
   d="M933.5,451.5h-197c-1.7,0-3-1.3-3-3v-373c0-1.7,1.3-3,3-3h197c1.7,0,3,1.3,3,3v373   C936.5,450.2,935.2,451.5,933.5,451.5z" />
	<path
   id="Sweden"
   class="st0"
   d="M933.5,506.5h-103c-1.7,0-3-1.3-3-3v-343c0-1.7,1.3-3,3-3h103c1.7,0,3,1.3,3,3v343   C936.5,505.2,935.2,506.5,933.5,506.5z" />
	<path
   id="Finland"
   class="st0"
   d="M1078.5,373.5h-139c-1.7,0-3-1.3-3-3v-252c0-1.7,1.3-3,3-3h139c1.7,0,3,1.3,3,3v252   C1081.5,372.2,1080.2,373.5,1078.5,373.5z" />
	<path
   id="Estonia"
   class="st0"
   d="M1078.5,469.5h-78c-1.7,0-3-1.3-3-3v-61c0-1.7,1.3-3,3-3h78c1.7,0,3,1.3,3,3v61   C1081.5,468.2,1080.2,469.5,1078.5,469.5z" />
	<path
   id="Ukraine"
   class="st0"
   d="M1409.5,601.5h-373c-1.7,0-3,1.3-3,3v191c0,1.7,1.3,3,3,3h373c1.7,0,3-1.3,3-3v-191   C1412.5,602.8,1411.2,601.5,1409.5,601.5z" />
	<path
   id="Latvia"
   class="st0"
   d="M1078.5,469.5h-108c-1.7,0-3,1.3-3,3v48c0,1.7,1.3,3,3,3h108c1.7,0,3-1.3,3-3v-48   C1081.5,470.8,1080.2,469.5,1078.5,469.5z" />
	<path
   id="Belarus"
   class="st0"
   d="M1192.5,523.5h-156c-1.7,0-3,1.3-3,3v137c0,1.7,1.3,3,3,3h156c1.7,0,3-1.3,3-3v-137   C1195.5,524.8,1194.2,523.5,1192.5,523.5z" />
	<path
   id="Lithuania"
   class="st0"
   d="M1061.5,511.5h-91c-1.7,0-3,1.3-3,3v44c0,1.7,1.3,3,3,3h91c1.7,0,3-1.3,3-3v-44   C1064.5,512.8,1063.2,511.5,1061.5,511.5z" />
	<path
   id="Ukraine_00000089561160207137037110000013623068993263219844_"
   class="st0"
   d="M1371.5,807.5h-60c-1.7,0-3,1.3-3,3v36   c0,1.7,1.3,3,3,3h60c1.7,0,3-1.3,3-3v-36C1374.5,808.8,1373.2,807.5,1371.5,807.5z" />
	<path
   id="Poland"
   class="st0"
   d="M1030.5,749.5h-179c-1.7,0-3-1.3-3-3v-182c0-1.7,1.3-3,3-3h179c1.7,0,3,1.3,3,3v182   C1033.5,748.2,1032.2,749.5,1030.5,749.5z" />
	<path
   id="Czechia"
   class="st0"
   d="M916.5,767.5h-95c-1.7,0-3-1.3-3-3v-50c0-1.7,1.3-3,3-3h95c1.7,0,3,1.3,3,3v50   C919.5,766.2,918.2,767.5,916.5,767.5z" />
	<path
   id="Slovakia"
   class="st0"
   d="M1030.5,749.5h-108c-1.7,0-3,1.3-3,3v30c0,1.7,1.3,3,3,3h108c1.7,0,3-1.3,3-3v-30   C1033.5,750.8,1032.2,749.5,1030.5,749.5z" />
	<path
   id="Hungary"
   class="st0"
   d="M1030.5,877.5h-123c-1.7,0-3-1.3-3-3v-86c0-1.7,1.3-3,3-3h123c1.7,0,3,1.3,3,3v86   C1033.5,876.2,1032.2,877.5,1030.5,877.5z" />
	<path
   id="Serbia"
   class="st0"
   d="M1068.5,1001.5h-102c-1.7,0-3-1.3-3-3v-118c0-1.7,1.3-3,3-3h102c1.7,0,3,1.3,3,3v118   C1071.5,1000.2,1070.2,1001.5,1068.5,1001.5z" />
	<path
   id="Montenegro"
   class="st0"
   d="M994.5,1001.5h-40c-1.7,0-3-1.3-3-3v-26c0-1.7,1.3-3,3-3h40c1.7,0,3,1.3,3,3v26   C997.5,1000.2,996.2,1001.5,994.5,1001.5z" />
	<rect
   x="997.5"
   y="969.5"
   class="st1"
   width="36"
   height="32"
   id="rect38" />
	<path
   id="Greece"
   class="st0"
   d="M1036.5,1001.5h134.6c1.7,0,3,1.3,3,3v14.4c0,1-0.5,2-1.4,2.5l-78.4,50.3c-1.5,1-1.8,3-0.7,4.4   l46.4,58.4c1,1.3,0.8,3.1-0.4,4.1l-41.7,35.9c-1.3,1.1-3.2,0.9-4.3-0.4l-59.4-72.8c-0.4-0.5-0.7-1.2-0.7-1.9v-59.9v-35   C1033.5,1002.8,1034.8,1001.5,1036.5,1001.5z" />
	<path
   id="North_Macedonia"
   class="st0"
   d="M1036.5,1039.5h32c1.7,0,3-1.3,3-3v-51c0-1.7-1.3-3-3-3h-32c-1.7,0-3,1.3-3,3v51   C1033.5,1038.2,1034.8,1039.5,1036.5,1039.5z" />
	<path
   id="Albania"
   class="st0"
   d="M1030.5,1001.5h-40c-1.7,0-3,1.3-3,3v70c0,1.7,1.3,3,3,3h40c1.7,0,3-1.3,3-3v-70   C1033.5,1002.8,1032.2,1001.5,1030.5,1001.5z" />
	<path
   id="France_00000062891810610749560170000006346880724257285053_"
   class="st0"
   d="M742.5,1043.5h-21c-1.7,0-3-1.3-3-3v-40   c0-1.7,1.3-3,3-3h21c1.7,0,3,1.3,3,3v40C745.5,1042.2,744.2,1043.5,742.5,1043.5z" />
	<path
   id="Italy_00000107564510811685660580000015027859580549180053_"
   class="st0"
   d="M746.5,1132.5h-35c-1.7,0-3-1.3-3-3v-63   c0-1.7,1.3-3,3-3h35c1.7,0,3,1.3,3,3v63C749.5,1131.2,748.2,1132.5,746.5,1132.5z" />
	<path
   id="Bulgaria"
   class="st0"
   d="M1223.5,1001.5h-149c-1.7,0-3-1.3-3-3v-73c0-1.7,1.3-3,3-3h149c1.7,0,3,1.3,3,3v73   C1226.5,1000.2,1225.2,1001.5,1223.5,1001.5z" />
	<path
   id="Romania"
   class="st0"
   d="M1223.5,922.5h-187c-1.7,0-3-1.3-3-3v-118c0-1.7,1.3-3,3-3h187c1.7,0,3,1.3,3,3v118   C1226.5,921.2,1225.2,922.5,1223.5,922.5z" />
	<path
   id="Moldova"
   class="st0"
   d="M1223.5,845.5h-66c-1.7,0-3-1.3-3-3v-69c0-1.7,1.3-3,3-3h66c1.7,0,3,1.3,3,3v69   C1226.5,844.2,1225.2,845.5,1223.5,845.5z" />
	<path
   id="Liechtenstein"
   class="st0"
   d="M779.5,877.5h-42c-1.7,0-3-1.3-3-3v-29c0-1.7,1.3-3,3-3h42c1.7,0,3,1.3,3,3v29   C782.5,876.2,781.2,877.5,779.5,877.5z" />
	<path
   id="Turkey"
   class="st0"
   d="M1174.1,1004.5v54.4c0,2.8,3.6,4.1,5.3,1.9l46.4-58.4c0.4-0.5,0.7-1.2,0.7-1.9v-45   c0-1.7,1.3-3,3-3h331c1.7,0,3,1.3,3,3v204c0,1.7-1.3,3-3,3l-331,0.7c-1.7,0-3-1.3-3-3v-155.7c0-1.7-1.3-3-3-3h-46.4   C1175.4,1001.5,1174.1,1002.8,1174.1,1004.5z" />
	<path
   id="Cyprus"
   class="st0"
   d="M1384.2,1220.5h-26.7c-1.7,0-3-1.3-3-3v-8.1c0-1.1,0.7-2.2,1.7-2.7l50.2-24.6   c2.8-1.4,5.6,1.9,3.8,4.4l-23.4,32.7C1386.1,1220,1385.2,1220.5,1384.2,1220.5z" />
	<path
   id="Vantican_City"
   class="st0"
   d="M832.5,1058.5h-42c-1.7,0-3-1.3-3-3v-33c0-1.7,1.3-3,3-3h42c1.7,0,3,1.3,3,3v33   C835.5,1057.2,834.2,1058.5,832.5,1058.5z" />
	<path
   id="San_Marino"
   class="st0"
   d="M869.5,992.5h-42c-1.7,0-3-1.3-3-3v-33c0-1.7,1.3-3,3-3h42c1.7,0,3,1.3,3,3v33   C872.5,991.2,871.2,992.5,869.5,992.5z" />
	<path
   id="Iceland"
   class="st0"
   d="M399.5,269.5h-108c-1.7,0-3-1.3-3-3v-66c0-1.7,1.3-3,3-3h108c1.7,0,3,1.3,3,3v66   C402.5,268.2,401.2,269.5,399.5,269.5z" />
	<path
   id="Greece_00000039120318528496050390000001722774461469531296_"
   class="st0"
   d="M1219.5,1222.5h-77c-1.7,0-3-1.3-3-3v-8   c0-1.7,1.3-3,3-3h77c1.7,0,3,1.3,3,3v8C1222.5,1221.2,1221.2,1222.5,1219.5,1222.5z" />
	<path
   id="Georgia"
   class="st0"
   d="M1498.5,952.5h-83c-1.7,0-3-1.3-3-3v-86c0-1.7,1.3-3,3-3h83c1.7,0,3,1.3,3,3v86   C1501.5,951.2,1500.2,952.5,1498.5,952.5z" />
	<path
   id="Azerbaijan"
   class="st0"
   d="M1504.5,952.5h56c1.7,0,3-1.3,3-3v-86c0-1.7-1.3-3-3-3h-56c-1.7,0-3,1.3-3,3v86   C1501.5,951.2,1502.8,952.5,1504.5,952.5z" />
	<path
   id="Armenia"
   class="st0"
   d="M1514.5,952.5h-67c-1.7,0-3-1.3-3-3v-40c0-1.7,1.3-3,3-3h67c1.7,0,3,1.3,3,3v40   C1517.5,951.2,1516.2,952.5,1514.5,952.5z" />
	<path
   id="Greenland"
   class="st0"
   d="M381.5,14.5h-362c-1.7,0-3,1.3-3,3v110c0,1.7,1.3,3,3,3h362c1.7,0,3-1.3,3-3v-110   C384.5,15.8,383.2,14.5,381.5,14.5z" />
	<g
   id="Russia_00000114044153275607347460000015326427561664358548_">
		<path
   id="Russia"
   class="st0"
   d="M1195.5,598.5v-72c0-1.7-1.3-3-3-3h-108c-1.7,0-3-1.3-3-3v-402c0-1.7-1.3-3-3-3h-139    c-1.7,0-3-1.3-3-3V38.3c0-1.7,1.4-3,3-3l621,4.2c1.7,0,3,1.3,3,3v815c0,1.7-1.3,3-3,3h-145c-1.7,0-3-1.3-3-3v-253c0-1.7-1.3-3-3-3    h-211C1196.8,601.5,1195.5,600.2,1195.5,598.5z" />
		<path
   id="Russia_00000006694109900938651660000004983022586525839035_"
   class="st0"
   d="M1006.5,582.5h-46c-1.7,0-3-1.3-3-3v-26    c0-1.7,1.3-3,3-3h46c1.7,0,3,1.3,3,3v26C1009.5,581.2,1008.2,582.5,1006.5,582.5z" />
	</g>
	<path
   id="Monaco"
   class="st0"
   d="M666.4,998.9h-42c-1.7,0-3-1.3-3-3v-33c0-1.7,1.3-3,3-3h42c1.7,0,3,1.3,3,3v33   C669.4,997.5,668.1,998.9,666.4,998.9z" />
	<path
   id="Malta"
   class="st0"
   d="M883.8,1225.7l-9.8,3.7c-1,0.4-2.1,0.2-2.9-0.4l-13.9-10.7c-2.6-2-0.5-6.2,2.7-5.3l23.7,7   C886.4,1220.8,886.5,1224.6,883.8,1225.7z" />
</g>
<g
   id="Layer_4">
	<path
   class="st2"
   d="M56.9,933.1H273c1.7,0,3,1.3,3,3v26c0,1.7-1.3,3-3,3H56.9c-1.7,0-3-1.3-3-3v-26   C53.9,934.5,55.3,933.1,56.9,933.1z"
   id="path65" />
	<path
   class="st3"
   d="M56.9,870H273c1.7,0,3,1.3,3,3v26c0,1.7-1.3,3-3,3H56.9c-1.7,0-3-1.3-3-3v-26C53.9,871.4,55.3,870,56.9,870z"
   id="path67" />
	<path
   class="st4"
   d="M56.9,742H273c1.7,0,3,1.3,3,3v26c0,1.7-1.3,3-3,3H56.9c-1.7,0-3-1.3-3-3v-26C53.9,743.4,55.3,742,56.9,742z"
   id="path69" />
	<path
   class="st5"
   d="M56.9,838H273c1.7,0,3,1.3,3,3v26c0,1.7-1.3,3-3,3H56.9c-1.7,0-3-1.3-3-3v-26C53.9,839.4,55.3,838,56.9,838z"
   id="path71" />
	<path
   class="st6"
   d="M56.9,774H273c1.7,0,3,1.3,3,3v26c0,1.7-1.3,3-3,3H56.9c-1.7,0-3-1.3-3-3v-26C53.9,775.4,55.3,774,56.9,774z"
   id="path73" />
	<path
   class="st7"
   d="M56.9,902H273c1.7,0,3,1.3,3,3v26c0,1.7-1.3,3-3,3H56.9c-1.7,0-3-1.3-3-3v-26C53.9,903.4,55.3,902,56.9,902z"
   id="path75" />
	<path
   class="st8"
   d="M56.9,806H273c1.7,0,3,1.3,3,3v26c0,1.7-1.3,3-3,3H56.9c-1.7,0-3-1.3-3-3v-26C53.9,807.4,55.3,806,56.9,806z"
   id="path77" />
	<path
   class="st9"
   d="M56.9,742H273c1.7,0,3,1.5,3,3.5V962c0,2-1.3,3.5-3,3.5H56.9c-1.7,0-3-1.5-3-3.5V745.5   C53.9,743.6,55.3,742,56.9,742z"
   id="path79" />
	<path
   class="st10"
   d="M64.4,749.6h90.2c1.7,0,3,1.3,3,3v10.6c0,1.7-1.3,3-3,3H64.4c-1.7,0-3-1.3-3-3v-10.6   C61.4,751,62.8,749.6,64.4,749.6z"
   id="path81" />
	<text
   transform="matrix(1 0 0 1 61.4438 764.5048)"
   class="st11 st12"
   id="text83">Lived here </text>
	<path
   class="st10"
   d="M65,781.8h117.9c1.7,0,3,1.3,3,3v10.6c0,1.7-1.3,3-3,3H65c-1.7,0-3-1.3-3-3v-10.6   C62,783.2,63.4,781.8,65,781.8z"
   id="path85" />
	<text
   transform="matrix(1 0 0 1 61.9937 796.6229)"
   class="st11 st12"
   id="text87">Stayed here </text>
	<path
   class="st10"
   d="M65.4,813.8h117.9c1.7,0,3,1.3,3,3v10.6c0,1.7-1.3,3-3,3H65.4c-1.7,0-3-1.3-3-3v-10.6   C62.4,815.2,63.8,813.8,65.4,813.8z"
   id="path89" />
	<text
   transform="matrix(1 0 0 1 62.4503 828.6221)"
   class="st11 st12"
   id="text91">Visited here </text>
	<path
   class="st10"
   d="M64.4,845.8h117.9c1.7,0,3,1.3,3,3v10.6c0,1.7-1.3,3-3,3H64.4c-1.7,0-3-1.3-3-3v-10.6   C61.4,847.2,62.8,845.8,64.4,845.8z"
   id="path93" />
	<text
   transform="matrix(1 0 0 1 61.4503 860.6222)"
   class="st11 st12"
   id="text95">Alighted here </text>
	<path
   class="st10"
   d="M65.4,877.8h117.9c1.7,0,3,1.3,3,3v10.6c0,1.7-1.3,3-3,3H65.4c-1.7,0-3-1.3-3-3v-10.6   C62.4,879.2,63.8,877.8,65.4,877.8z"
   id="path97" />
	<text
   transform="matrix(1 0 0 1 62.4503 892.6222)"
   class="st11 st12"
   id="text99">Passed here </text>
	<path
   class="st10"
   d="M65.4,909.8h165.5c1.7,0,3,1.3,3,3v10.6c0,1.7-1.3,3-3,3H65.4c-1.7,0-3-1.3-3-3v-10.6   C62.4,911.2,63.8,909.8,65.4,909.8z"
   id="path101" />
	<text
   transform="matrix(1 0 0 1 62.4503 924.6222)"
   class="st11 st12"
   id="text103">Want to be here </text>
	<path
   class="st10"
   d="M65.8,940.1h165.5c1.7,0,3,1.3,3,3v10.6c0,1.7-1.3,3-3,3H65.8c-1.7,0-3-1.3-3-3v-10.6   C62.8,941.5,64.2,940.1,65.8,940.1z"
   id="path105" />
	<text
   transform="matrix(1 0 0 1 62.8503 954.9222)"
   class="st11 st12"
   id="text107">Never been here </text>
	<path
   class="st10"
   d="M210.7,939.5h53.4c1.7,0,3,1.3,3,3v10.6c0,1.7-1.3,3-3,3h-53.4c-1.7,0-3-1.3-3-3v-10.6   C207.7,940.9,209.1,939.5,210.7,939.5z"
   id="path109" />
	<text
   transform="matrix(1 0 0 1 234.354 954.3421)"
   class="st11 st12"
   id="text111">0 pt </text>
	<path
   class="st10"
   d="M209.3,750.2h53.4c1.7,0,3,1.3,3,3v10.6c0,1.7-1.3,3-3,3h-53.4c-1.7,0-3-1.3-3-3v-10.6   C206.3,751.6,207.7,750.2,209.3,750.2z"
   id="path113" />
	<text
   transform="matrix(1 0 0 1 232.9265 765.0421)"
   class="st11 st12"
   id="text115">5 pt </text>
	<path
   class="st10"
   d="M209.3,781.2h53.4c1.7,0,3,1.3,3,3v10.6c0,1.7-1.3,3-3,3h-53.4c-1.7,0-3-1.3-3-3v-10.6   C206.3,782.6,207.7,781.2,209.3,781.2z"
   id="path117" />
	<text
   transform="matrix(1 0 0 1 232.954 796.0421)"
   class="st11 st12"
   id="text119">4 pt </text>
	<path
   class="st10"
   d="M210.3,813.2h53.4c1.7,0,3,1.3,3,3v10.6c0,1.7-1.3,3-3,3h-53.4c-1.7,0-3-1.3-3-3v-10.6   C207.3,814.6,208.7,813.2,210.3,813.2z"
   id="path121" />
	<text
   transform="matrix(1 0 0 1 233.954 828.0421)"
   class="st11 st12"
   id="text123">3 pt </text>
	<path
   class="st10"
   d="M210.3,845.2h53.4c1.7,0,3,1.3,3,3v10.6c0,1.7-1.3,3-3,3h-53.4c-1.7,0-3-1.3-3-3v-10.6   C207.3,846.6,208.7,845.2,210.3,845.2z"
   id="path125" />
	<text
   transform="matrix(1 0 0 1 233.954 860.0421)"
   class="st11 st12"
   id="text127">2 pt </text>
	<path
   class="st10"
   d="M210.3,877.2h53.4c1.7,0,3,1.3,3,3v10.6c0,1.7-1.3,3-3,3h-53.4c-1.7,0-3-1.3-3-3v-10.6   C207.3,878.6,208.7,877.2,210.3,877.2z"
   id="path129" />
	<text
   transform="matrix(1 0 0 1 233.954 892.0421)"
   class="st11 st12"
   id="text131">1 pt </text>
	<path
   class="st10"
   d="M210.3,909.2h53.4c1.7,0,3,1.3,3,3v10.6c0,1.7-1.3,3-3,3h-53.4c-1.7,0-3-1.3-3-3v-10.6   C207.3,910.6,208.7,909.2,210.3,909.2z"
   id="path133" />
	<text
   transform="matrix(1 0 0 1 233.954 924.0421)"
   class="st11 st12"
   id="text135">0 pt </text>
</g>
<text
   transform="matrix(1 0 0 1 54.171 392.5391)"
   class="st13 st14"
   id="text138">EU Level 0</text>
<g
   id="Layer_2_00000170987999295440703620000011370224957708253887_">
</g>
<g
   id="Layer_3_00000092435239432390454380000005536149852209534354_">
	<rect
   x="438.8"
   y="618"
   class="st10"
   width="154"
   height="49"
   id="rect141" />
	<text
   transform="matrix(1 0 0 1 494.0555 654.0649)"
   class="st13 st15"
   id="text143">UK</text>
	<rect
   x="276.5"
   y="637.9"
   class="st10"
   width="154"
   height="49"
   id="rect145" />
	<text
   transform="matrix(1 0 0 1 308.4437 672.0728)"
   class="st13 st16"
   id="text147">Ireland</text>
	<rect
   x="503"
   y="837.9"
   class="st10"
   width="154"
   height="49"
   id="rect149" />
	<text
   transform="matrix(1 0 0 1 529.1259 873.9949)"
   class="st13 st15"
   id="text151">France</text>
	<rect
   x="419.6"
   y="1063.9"
   class="st10"
   width="154"
   height="49"
   id="rect153" />
	<text
   transform="matrix(1 0 0 1 454.5198 1099.9177)"
   class="st13 st15"
   id="text155">Spain</text>
	<rect
   x="353.7"
   y="1075.1"
   class="st10"
   width="65.7"
   height="114.8"
   id="rect157" />
	<text
   transform="matrix(1 0 0 1 364.4144 1127.7808)"
   class="st13 st17"
   id="text159">Por</text>
	<text
   transform="matrix(1 0 0 1 401.9144 1127.7808)"
   class="st13 st17"
   id="text161">-</text>
	<text
   transform="matrix(1 0 0 1 357.5144 1154.1808)"
   class="st13 st17"
   id="text163">tugal</text>
	<rect
   x="690.5"
   y="642"
   class="st10"
   width="154"
   height="49"
   id="rect165" />
	<text
   transform="matrix(1 0 0 1 703.3309 677.2939)"
   class="st13 st18"
   id="text167">Germany</text>
	<rect
   x="864"
   y="624.1"
   class="st10"
   width="154"
   height="49"
   id="rect169" />
	<text
   transform="matrix(1 0 0 1 888.7344 660.1151)"
   class="st13 st15"
   id="text171">Poland</text>
	<rect
   x="1139.5"
   y="681"
   class="st10"
   width="154"
   height="49"
   id="rect173" />
	<text
   transform="matrix(1 0 0 1 1156.8075 717.0649)"
   class="st13 st15"
   id="text175">Ukraine</text>
	<rect
   x="1041.5"
   y="567"
   class="st10"
   width="154"
   height="49"
   id="rect177" />
	<text
   transform="matrix(1 0 0 1 1069.0262 601.5)"
   class="st13 st19"
   id="text179">Belarus</text>
	<rect
   x="747.5"
   y="518.8"
   class="st10"
   width="154"
   height="49"
   id="rect181" />
	<text
   transform="matrix(1 0 0 1 773.0126 551.7388)"
   class="st13 st17"
   id="text183">Denmark</text>
	<rect
   x="681.5"
   y="921"
   class="st10"
   width="154"
   height="49"
   id="rect185" />
	<text
   transform="matrix(1 0 0 1 725.0062 957.0649)"
   class="st13 st15"
   id="text187">Italy</text>
	<rect
   x="567"
   y="715.5"
   class="st10"
   width="154"
   height="49"
   id="rect189" />
	<text
   transform="matrix(1 0 0 1 606.6288 746.939)"
   class="st13 st12"
   id="text191">Belgium</text>
	<rect
   x="552"
   y="600"
   class="st10"
   width="154"
   height="49"
   id="rect193" />
	<text
   transform="matrix(1 0 0 1 579.0066 630.668)"
   class="st13 st20"
   id="text195">Netherlands</text>
	<rect
   x="791.4"
   y="715.5"
   class="st10"
   width="154"
   height="49"
   id="rect197" />
	<text
   transform="matrix(1 0 0 1 824.5345 748.481)"
   class="st13 st17"
   id="text199">Czechia</text>
	<rect
   x="890.5"
   y="807.3"
   class="st10"
   width="154"
   height="49"
   id="rect201" />
	<text
   transform="matrix(1 0 0 1 910.5741 841.8453)"
   class="st13 st19"
   id="text203">Hungary</text>
	<rect
   x="1053"
   y="846"
   class="st10"
   width="154"
   height="49"
   id="rect205" />
	<text
   transform="matrix(1 0 0 1 1067.6151 881.2939)"
   class="st13 st18"
   id="text207">Romania</text>
	<rect
   x="1318.4"
   y="1034"
   class="st10"
   width="154"
   height="49"
   id="rect209" />
	<text
   transform="matrix(1 0 0 1 1341.4017 1070.0649)"
   class="st13 st15"
   id="text211">Turkey</text>
	<rect
   x="1044.5"
   y="1165.4"
   class="st10"
   width="154"
   height="49"
   id="rect213" />
	<text
   transform="matrix(1 0 0 1 1072.6366 1200.6735)"
   class="st13 st18"
   id="text215">Greece</text>
	<rect
   x="1072"
   y="938.4"
   class="st10"
   width="154"
   height="49"
   id="rect217" />
	<text
   transform="matrix(1 0 0 1 1089.8212 973.6489)"
   class="st13 st18"
   id="text219">Bulgaria</text>
	<rect
   x="767.5"
   y="835.2"
   class="st10"
   width="154"
   height="49"
   id="rect221" />
	<text
   transform="matrix(1 0 0 1 795.9911 869.6782)"
   class="st13 st19"
   id="text223">Austria</text>
	<rect
   x="899.5"
   y="742.3"
   class="st10"
   width="154"
   height="49"
   id="rect225" />
	<text
   transform="matrix(1 0 0 1 929.6156 775.3109)"
   class="st13 st17"
   id="text227">Slovakia</text>
	<rect
   x="659.8"
   y="850.5"
   class="st10"
   width="78.2"
   height="49"
   id="rect229" />
	<text
   transform="matrix(1 0 0 1 674.2625 870.7051)"
   class="st13 st21"
   id="text231">Swit</text>
	<text
   transform="matrix(1 0 0 1 717.5625 870.7051)"
   class="st13 st21"
   id="text233">-</text>
	<text
   transform="matrix(1 0 0 1 660.2625 894.7051)"
   class="st13 st21"
   id="text235">zerland</text>
	<rect
   x="963.5"
   y="411.5"
   class="st10"
   width="154"
   height="49"
   id="rect237" />
	<text
   transform="matrix(1 0 0 1 1002.702 443.71)"
   class="st13 st21"
   id="text239">Estonia</text>
	<rect
   x="945.7"
   y="465.8"
   class="st10"
   width="154"
   height="49"
   id="rect241" />
	<text
   transform="matrix(1 0 0 1 985.6877 499.527)"
   class="st13 st22"
   id="text243">Latvia</text>
	<rect
   x="939"
   y="510.3"
   class="st10"
   width="154"
   height="49"
   id="rect245" />
	<text
   transform="matrix(1 0 0 1 972.9509 541.7158)"
   class="st13 st12"
   id="text247">Lithuania</text>
	<rect
   x="1159.5"
   y="783.5"
   class="st10"
   width="62"
   height="49"
   id="rect249" />
	<text
   transform="matrix(1 0 0 1 1164.4257 802.8521)"
   class="st13 st22"
   id="text251">Mol</text>
	<text
   transform="matrix(1 0 0 1 1209.3257 802.8521)"
   class="st13 st22"
   id="text253">-</text>
	<text
   transform="matrix(1 0 0 1 1160.7257 831.6521)"
   class="st13 st22"
   id="text255">dova</text>
	<rect
   x="940.5"
   y="916.5"
   class="st10"
   width="154"
   height="49"
   id="rect257" />
	<text
   transform="matrix(1 0 0 1 976.0624 951.0073)"
   class="st13 st19"
   id="text259">Serbia</text>
	<rect
   x="780.5"
   y="875"
   class="st10"
   width="154"
   height="49"
   id="rect261" />
	<text
   transform="matrix(1 0 0 1 836.1132 908.7471)"
   class="st13 st22"
   id="text263">Slo.</text>
	<rect
   x="941.2"
   y="1066"
   class="st10"
   width="92.5"
   height="49"
   id="rect265" />
	<text
   transform="matrix(1 0 0 1 952.5635 1097.439)"
   class="st13 st12"
   id="text267">Albania</text>
	<rect
   x="856.1"
   y="873.9"
   class="st10"
   width="154"
   height="49"
   id="rect269" />
	<text
   transform="matrix(1 0 0 1 907.0862 903.827)"
   class="st13 st23"
   id="text271">Croatia</text>
	<rect
   x="867.7"
   y="909.5"
   class="st10"
   width="154"
   height="49"
   id="rect273" />
	<text
   transform="matrix(1 0 0 1 929.0422 940.9233)"
   class="st13 st12"
   id="text275">BiH</text>
	<rect
   x="897.6"
   y="962.9"
   class="st10"
   width="154"
   height="49"
   id="rect277" />
	<text
   transform="matrix(1 0 0 1 955.8191 994.2939)"
   class="st13 st12"
   id="text279">MtN</text>
	<rect
   x="975.5"
   y="991.2"
   class="st10"
   width="154"
   height="49"
   id="rect281" />
	<text
   transform="matrix(1 0 0 1 1036.5756 1021.1392)"
   class="st13 st23"
   id="text283">Mac.</text>
	<rect
   x="714.5"
   y="1045.6"
   class="st10"
   width="154"
   height="49"
   id="rect285" />
	<text
   transform="matrix(1 0 0 1 755.8944 1076.2886)"
   class="st13 st20"
   id="text287">Vantican</text>
	<rect
   x="819.2"
   y="949.1"
   class="st10"
   width="58.6"
   height="49"
   id="rect289" />
	<text
   transform="matrix(1 0 0 1 837.6044 971.0742)"
   class="st13 st24"
   id="text291">San </text>
	<text
   transform="matrix(1 0 0 1 827.1044 985.4742)"
   class="st13 st24"
   id="text293">Marino</text>
	<rect
   x="681.5"
   y="803.4"
   class="st10"
   width="154"
   height="49"
   id="rect295" />
	<text
   transform="matrix(1 0 0 1 728.494 834.8488)"
   class="st13 st12"
   id="text297">Liecht.</text>
	<rect
   x="609.5"
   y="751.2"
   class="st10"
   width="154"
   height="49"
   id="rect299" />
	<text
   transform="matrix(1 0 0 1 667.8143 782.6459)"
   class="st13 st12"
   id="text301">Lux.</text>
	<rect
   x="475"
   y="924.7"
   class="st10"
   width="154"
   height="49"
   id="rect303" />
	<text
   transform="matrix(1 0 0 1 514.323 956.092)"
   class="st13 st12"
   id="text305">Andorra</text>
	<rect
   x="838.9"
   y="1203.1"
   class="st10"
   width="154"
   height="49"
   id="rect307" />
	<text
   transform="matrix(1 0 0 1 890.55 1234.5837)"
   class="st13 st12"
   id="text309">Malta</text>
	<rect
   x="1367.5"
   y="1174"
   class="st10"
   width="154"
   height="49"
   id="rect311" />
	<text
   transform="matrix(1 0 0 1 1411.787 1205.439)"
   class="st13 st12"
   id="text313">Cyprus</text>
	<rect
   x="560.5"
   y="985.1"
   class="st10"
   width="154"
   height="49"
   id="rect315" />
	<text
   transform="matrix(1 0 0 1 601.8427 1016.5757)"
   class="st13 st12"
   id="text317">Monaco</text>
	<rect
   x="1380"
   y="858.6"
   class="st10"
   width="154"
   height="49"
   id="rect319" />
	<text
   transform="matrix(1 0 0 1 1421.0217 890.0211)"
   class="st13 st12"
   id="text321">Georgia</text>
	<rect
   x="1460.5"
   y="868.3"
   class="st10"
   width="154"
   height="49"
   id="rect323" />
	<text
   transform="matrix(1 0 0 1 1514.0117 899.777)"
   class="st13 st12"
   id="text325">Azer.</text>
	<rect
   x="1404"
   y="906.5"
   class="st10"
   width="154"
   height="49"
   id="rect327" />
	<text
   transform="matrix(1 0 0 1 1450.785 936.3584)"
   class="st13 st23"
   id="text329">Armenia</text>
	<rect
   x="288.9"
   y="214"
   class="st10"
   width="113.1"
   height="39"
   id="rect331" />
	<text
   transform="matrix(1 0 0 1 293.9506 244.2939)"
   class="st13 st18"
   id="text333">Iceland</text>
	<rect
   x="758.5"
   y="91"
   class="st10"
   width="154"
   height="49"
   id="rect335" />
	<text
   transform="matrix(1 0 0 1 777.0673 127.0649)"
   class="st13 st15"
   id="text337">Norway</text>
	<rect
   x="805"
   y="307.5"
   class="st10"
   width="154"
   height="49"
   id="rect339" />
	<text
   transform="matrix(1 0 0 1 834.8964 341.252)"
   class="st13 st22"
   id="text341">Sweden</text>
	<rect
   x="933.5"
   y="209"
   class="st10"
   width="154"
   height="49"
   id="rect343" />
	<text
   transform="matrix(1 0 0 1 953.6714 245.0649)"
   class="st13 st15"
   id="text345">Finland</text>
	<rect
   x="1256.7"
   y="279.4"
   class="st10"
   width="154"
   height="49"
   id="rect347" />
	<text
   transform="matrix(1 0 0 1 1282.8127 315.4531)"
   class="st13 st15"
   id="text349">Russia</text>
</g>
<rect
   style="fill:#ffffff;fill-opacity:1;stroke:#000000;stroke-width:3.3951;stroke-linecap:round;stroke-linejoin:round;stroke-miterlimit:4;stroke-dasharray:none;stroke-opacity:1"
   id="rect1229"
   width="34.753773"
   height="22.16012"
   x="997.81012"
   y="979.05719"
   ry="3.2459469" /><text
   class="st13 st12"
   id="text279-4"
   style="font-size:16.3804px;font-family:LucidaSans-Demi;stroke-width:0.910024"
   x="1099.8989"
   y="906.93445"
   transform="scale(0.91002434,1.0988717)">Kos</text></svg>
