<?xml version="1.0" encoding="UTF-8"?>
<svg id="Layer_1" xmlns="http://www.w3.org/2000/svg" version="1.1" viewBox="0 0 1146.1 912.5">
  <!-- Generator: Adobe Illustrator 30.1.0, SVG Export Plug-In . SVG Version: 2.1.1 Build 136)  -->
  <defs>
    <style>
      .st0, .st1, .st2 {
        fill: #fff;
      }

      .st0, .st3 {
        stroke-miterlimit: 10;
      }

      .st0, .st3, .st2 {
        stroke: #000;
      }

      .st0, .st2 {
        stroke-width: 3px;
      }

      .st4 {
        font-size: 16.01px;
      }

      .st4, .st5, .st6, .st7, .st8, .st9 {
        font-family: LucidaSans-Demi, 'Lucida Sans';
        font-weight: 300;
        isolation: isolate;
      }

      .st10 {
        fill: #ff7e7e;
      }

      .st5 {
        font-size: 18px;
      }

      .st11 {
        fill: #ffe57e;
      }

      .st12 {
        display: none;
        fill: #a9a9d9;
      }

      .st13 {
        fill: #ffb57e;
      }

      .st14, .st3 {
        fill: none;
      }

      .st6 {
        font-size: 72px;
      }

      .st15 {
        fill: #d6beff;
      }

      .st16 {
        fill: #88aeff;
      }

      .st3 {
        stroke-width: 2px;
      }

      .st2 {
        stroke-linejoin: round;
      }

      .st7 {
        font-size: 14.01px;
      }

      .st8 {
        font-size: 12.01px;
      }

      .st17 {
        fill: #a8ffbe;
      }

      .st9 {
        font-size: 8px;
      }
    </style>
  </defs>
  <rect class="st12" x="-43.8" y="-7.1" width="1920" height="1080"/>
  <path id="Maryland" class="st0" d="M740.52,481.28h58.7c1.13,0,2,.87,2,2v18.68c0,1.13-.87,2-2,2h-58.7c-1.13,0-2-.87-2-2v-18.68c0-1.13.87-2,2-2Z"/>
  <path id="Ohio" class="st0" d="M668.48,457.93h50.7c1.13,0,2,.87,2,2v59.37c0,1.13-.87,2-2,2h-50.7c-1.13,0-2-.87-2-2v-59.37c0-1.13.87-2,2-2Z"/>
  <path id="California" class="st0" d="M292.25,448.59v185.51c0,1.67-1.87,2.6-3.2,1.6l-92.19-67.11c-.53-.4-.8-1-.8-1.6v-118.41c0-1.13.87-2,2-2h92.19c1.13,0,2,.87,2,2Z"/>
  <path id="Utah" class="st0" d="M294.25,446.59h48.7c1.13,0,2,.87,2,2v96.06c0,1.13-.87,2-2,2h-48.7c-1.13,0-2-.87-2-2v-96.06c0-1.13.87-2,2-2Z"/>
  <path id="Idaho" class="st0" d="M272.23,344.53h58.04c1.13,0,2,.87,2,2v98.06c0,1.13-.87,2-2,2h-58.04c-1.13,0-2-.87-2-2v-98.06c0-1.13.87-2,2-2Z"/>
  <path id="South_Dakota" class="st0" d="M421.66,397.23h94.73c1.13,0,2,.87,2,2v45.36c0,1.13-.87,2-2,2h-94.73c-1.13,0-2-.87-2-2v-45.36c0-1.13.87-2,2-2Z"/>
  <path id="Nebraska" class="st0" d="M421.66,446.59h104.06c1.13,0,2,.87,2,2v46.03c0,1.13-.87,2-2,2h-104.06c-1.13,0-2-.87-2-2v-46.03c0-1.13.87-2,2-2Z"/>
  <path id="Oklahoma" class="st0" d="M426.33,546.65h115.4c1.13,0,2,.87,2,2v50.03c0,1.13-.87,2-2,2h-115.4c-1.13,0-2-.87-2-2v-50.03c0-1.13.87-2,2-2Z"/>
  <path id="Missouri" class="st0" d="M529.73,488.62h82.72c1.13,0,2,.87,2,2v66.71c0,1.13-.87,2-2,2h-82.72c-1.13,0-2-.87-2-2v-66.71c0-1.13.87-2,2-2Z"/>
  <path id="Illinois" class="st0" d="M592.43,444.59h36.02c1.13,0,2,.87,2,2v86.05c0,1.13-.87,2-2,2h-36.02c-1.13,0-2-.87-2-2v-86.05c0-1.13.87-2,2-2Z"/>
  <path id="Maine" class="st0" d="M840.92,337.86h25.02c1.13,0,2,.87,2,2v58.04c0,1.13-.87,2-2,2h-25.02c-1.13,0-2-.87-2-2v-58.04c0-1.13.87-2,2-2Z"/>
  <path id="New_Hampshire" class="st0" d="M823.91,366.54h12.67c1.13,0,2,.87,2,2v42.69c0,1.13-.87,2-2,2h-12.67c-1.13,0-2-.87-2-2v-42.69c0-1.13.87-2,2-2Z"/>
  <path id="Vermont" class="st0" d="M807.23,366.54h12.67c1.13,0,2,.87,2,2v42.69c0,1.13-.87,2-2,2h-12.67c-1.13,0-2-.87-2-2v-42.69c0-1.13.87-2,2-2Z"/>
  <path id="Massachusettes" class="st0" d="M807.23,413.24h41.36c1.13,0,2,.87,2,2v27.35c0,1.13-.87,2-2,2h-41.36c-1.13,0-2-.87-2-2v-27.35c0-1.13.87-2,2-2Z"/>
  <path id="Connecticut" class="st0" d="M807.23,431.25h17.34c1.13,0,2,.87,2,2v9.34c0,1.13-.87,2-2,2h-17.34c-1.13,0-2-.87-2-2v-9.34c0-1.13.87-2,2-2Z"/>
  <path id="New_York" class="st0" d="M748.53,366.54h54.7c1.13,0,2,.87,2,2v81.38c0,1.13-.87,2-2,2h-54.7c-1.13,0-2-.87-2-2v-81.38c0-1.13.87-2,2-2Z"/>
  <path id="Rhode_Island" class="st0" d="M828.58,431.25h8c1.13,0,2,.87,2,2v9.34c0,1.13-.87,2-2,2h-8c-1.13,0-2-.87-2-2v-9.34c0-1.13.87-2,2-2Z"/>
  <path id="Pennsylvania" class="st0" d="M723.18,444.59h60.04c1.13,0,2,.87,2,2v32.69c0,1.13-.87,2-2,2h-60.04c-1.13,0-2-.87-2-2v-32.69c0-1.13.87-2,2-2Z"/>
  <path id="New_Jersy" class="st0" d="M787.22,451.93h16.01c1.13,0,2,.87,2,2v20.01c0,1.13-.87,2-2,2h-16.01c-1.13,0-2-.87-2-2v-20.01c0-1.13.87-2,2-2Z"/>
  <path id="Delaware" class="st0" d="M787.22,475.94h12.01c1.13,0,2,.87,2,2v12.01c0,1.13-.87,2-2,2h-12.01c-1.13,0-2-.87-2-2v-12.01c0-1.13.87-2,2-2Z"/>
  <path id="Virginia" class="st0" d="M711.17,503.96h88.05c1.13,0,2,.87,2,2v36.69c0,1.13-.87,2-2,2h-88.05c-1.13,0-2-.87-2-2v-36.69c0-1.13.87-2,2-2Z"/>
  <path id="DC" class="st0" d="M774.55,497.29h13.34c1.13,0,2,.87,2,2v8c0,1.13-.87,2-2,2h-13.34c-1.13,0-2-.87-2-2v-8c0-1.13.87-2,2-2Z"/>
  <path id="West_Virginia" class="st0" d="M711.17,481.28h25.35c1.13,0,2,.87,2,2v41.36c0,1.13-.87,2-2,2h-25.35c-1.13,0-2-.87-2-2v-41.36c0-1.13.87-2,2-2Z"/>
  <path id="Kentucky" class="st0" d="M616.45,520.64h90.72c1.13,0,2,.87,2,2v20.01c0,1.13-.87,2-2,2h-90.72c-1.13,0-2-.87-2-2v-20.01c0-1.13.87-2,2-2Z"/>
  <path id="North_Carolina" class="st0" d="M718.51,544.65h68.04c1.13,0,2,.87,2,2v22.01c0,1.13-.87,2-2,2h-68.04c-1.13,0-2-.87-2-2v-22.01c0-1.13.87-2,2-2Z"/>
  <path id="Tennessee" class="st0" d="M616.45,544.65h98.06c1.13,0,2,.87,2,2v22.01c0,1.13-.87,2-2,2h-98.06c-1.13,0-2-.87-2-2v-22.01c0-1.13.87-2,2-2Z"/>
  <path id="South_Carolina" class="st0" d="M742.53,570.67h34.02c1.13,0,2,.87,2,2v38.69c0,1.13-.87,2-2,2h-34.02c-1.13,0-2-.87-2-2v-38.69c0-1.13.87-2,2-2Z"/>
  <path id="Georgia" class="st0" d="M687.83,570.67h50.7c1.13,0,2,.87,2,2v66.04c0,1.13-.87,2-2,2h-50.7c-1.13,0-2-.87-2-2v-66.04c0-1.13.87-2,2-2Z"/>
  <path id="Alabama" class="st0" d="M636.46,570.67h47.36c1.13,0,2,.87,2,2v76.71c0,1.13-.87,2-2,2h-47.36c-1.13,0-2-.87-2-2v-76.71c0-1.13.87-2,2-2Z"/>
  <path id="Indiana" class="st0" d="M632.46,457.93h32.02c1.13,0,2,.87,2,2v58.7c0,1.13-.87,2-2,2h-32.02c-1.13,0-2-.87-2-2v-58.7c0-1.13.87-2,2-2Z"/>
  <path id="Wisconsin" class="st0" d="M569.75,380.55h58.7c1.13,0,2,.87,2,2v60.04c0,1.13-.87,2-2,2h-58.7c-1.13,0-2-.87-2-2v-60.04c0-1.13.87-2,2-2Z"/>
  <path id="Louisiana" class="st0" d="M549.74,618.03h62.71c1.13,0,2,.87,2,2v58.7c0,1.13-.87,2-2,2h-62.71c-1.13,0-2-.87-2-2v-58.7c0-1.13.87-2,2-2Z"/>
  <path id="Arkansas" class="st0" d="M545.74,559.33h66.71c1.13,0,2,.87,2,2v54.7c0,1.13-.87,2-2,2h-66.71c-1.13,0-2-.87-2-2v-54.7c0-1.13.87-2,2-2Z"/>
  <path id="Mississippi" class="st0" d="M596.44,570.67h36.02c1.13,0,2,.87,2,2v76.71c0,1.13-.87,2-2,2h-36.02c-1.13,0-2-.87-2-2v-76.71c0-1.13.87-2,2-2Z"/>
  <path id="Iowa" class="st0" d="M520.39,437.92h68.04c1.13,0,2,.87,2,2v46.7c0,1.13-.87,2-2,2h-68.04c-1.13,0-2-.87-2-2v-46.7c0-1.13.87-2,2-2Z"/>
  <path id="Minnesota" class="st0" d="M513.72,344.53h68.04c1.13,0,2,.87,2,2v89.39c0,1.13-.87,2-2,2h-68.04c-1.13,0-2-.87-2-2v-89.39c0-1.13.87-2,2-2Z"/>
  <path id="Kansas" class="st0" d="M444.34,496.62h81.38c1.13,0,2,.87,2,2v46.03c0,1.13-.87,2-2,2h-81.38c-1.13,0-2-.87-2-2v-46.03c0-1.13.87-2,2-2Z"/>
  <path id="North_Dakota" class="st0" d="M421.66,344.53h88.05c1.13,0,2,.87,2,2v48.7c0,1.13-.87,2-2,2h-88.05c-1.13,0-2-.87-2-2v-48.7c0-1.13.87-2,2-2Z"/>
  <path id="Colorado" class="st0" d="M346.95,473.27h93.39c1.13,0,2,.87,2,2v69.38c0,1.13-.87,2-2,2h-93.39c-1.13,0-2-.87-2-2v-69.38c0-1.13.87-2,2-2Z"/>
  <path id="Wyoming" class="st0" d="M334.27,407.23h83.39c1.13,0,2,.87,2,2v62.04c0,1.13-.87,2-2,2h-83.39c-1.13,0-2-.87-2-2v-62.04c0-1.13.87-2,2-2Z"/>
  <path id="Montana" class="st0" d="M312.93,344.53h104.73c1.13,0,2,.87,2,2v58.7c0,1.13-.87,2-2,2h-104.73c-1.13,0-2-.87-2-2v-58.7c0-1.13.87-2,2-2Z"/>
  <path id="Arizona" class="st0" d="M294.25,546.65h48.7c1.13,0,2,.87,2,2v87.39c0,1.13-.87,2-2,2h-48.7c-1.13,0-2-.87-2-2v-87.39c0-1.13.87-2,2-2Z"/>
  <path id="Oregon" class="st0" d="M188.85,387.89h79.38c1.13,0,2,.87,2,2v54.7c0,1.13-.87,2-2,2h-79.38c-1.13,0-2-.87-2-2v-54.7c0-1.13.87-2,2-2Z"/>
  <path id="Washington" class="st0" d="M179.51,344.53h88.72c1.13,0,2,.87,2,2v39.36c0,1.13-.87,2-2,2h-88.72c-1.13,0-2-.87-2-2v-39.36c0-1.13.87-2,2-2Z"/>
  <path id="Texas" class="st0" d="M547.74,602.69v77.38c0,.47-.13.87-.4,1.2l-44.29,57.1c-.73.93-2.07,1.07-2.94.27l-109.8-100c-.4-.4-.67-.93-.67-1.47v-34.49c0-1.13.87-2,2-2h154.1c1.13,0,2,.87,2,2Z"/>
  <path id="New_Mexico" class="st0" d="M346.95,546.65h75.38c1.13,0,2,.87,2,2v87.39c0,1.13-.87,2-2,2h-75.38c-1.13,0-2-.87-2-2v-87.39c0-1.13.87-2,2-2Z"/>
  <path id="Michigan" class="st0" d="M689.63,368.21v87.72c0,1.13-.87,2-2,2h-37.16c-1.13,0-2-.87-2-2v-73.38c0-1.13-.87-2-2-2h-37.89c-1.13,0-2-.87-2-2v-10.34c0-1.13.87-2,2-2h79.05c1.13,0,2,.87,2,2Z"/>
  <path id="Florida" class="st0" d="M740.52,642.71v87.59c0,1.13-.87,2-2,2h-23.35c-1.13,0-2-.87-2-2v-68.84c0-1.13-.87-2-2-2h-49.03c-1.13,0-2-.87-2-2v-14.74c0-1.13.87-2,2-2h76.38c1.13,0,2,.87,2,2Z"/>
  <path id="Alaska" class="st0" d="M322.27,789.47h-30.22c-1.13,0-2-.87-2-2v-9.47c0-1.13-.87-2-2-2h-70.84c-1.13,0-2-.87-2-2v-62.97c0-1.13.87-2,2-2h71.44c.8,0,1.53.47,1.8,1.2l33.62,76.45c.6,1.33-.33,2.8-1.8,2.8Z"/>
  <path id="Hawaii" class="st0" d="M384.24,732.57h-12.67c-1.13,0-2-.87-2-2v-6.54c0-1.6,1.8-2.53,3.14-1.67l70.31,49.03c1.6,1.13.8,3.67-1.13,3.67h-20.08c-1.07,0-1.93-.8-2-1.87l-1.47-27.28c-.07-1.07-.93-1.87-2-1.87h-28.15c-1.13,0-2-.87-2-2v-7.4c.07-1.2-.8-2.07-1.93-2.07Z"/>
  <path id="Puerto_Rico" class="st0" d="M822.84,703.95l-4.27,7.07c-.33.6-1,1-1.73,1h-26.22c-1.13,0-2-.87-2-2v-7.07c0-1.13.87-2,2-2h30.49c1.53,0,2.53,1.67,1.73,3Z"/>
  <path id="Guam" class="st0" d="M794.16,750.38h-3.54c-1.13,0-2-.87-2-2v-8.41c0-.6.27-1.13.73-1.53l8.14-6.8c1.53-1.27,3.8.2,3.2,2.13l-4.6,15.21c-.27.8-1.07,1.4-1.93,1.4Z"/>
  <path id="Northern_Mariana_Islands" class="st0" d="M831.78,737.7l-7.14.87c-1.2.13-2,1.33-1.67,2.53l.07.27c.53,1.87,3.14,2,3.8.13l2.67-7.4c.67-1.93,3.47-1.73,3.87.27l.2.93c.13,1.13-.67,2.27-1.8,2.4Z"/>
  <path id="American_Samoa" class="st0" d="M858.06,740.84l-3.6,1.93c-.67.4-1.53.33-2.2-.2l-1.33-1c-1.33-1.07-.87-3.2.87-3.54l4.94-.93c2.27-.47,3.34,2.6,1.33,3.74Z"/>
  <path id="Nevada" class="st0" d="M292.25,448.59v113.27c0,1.6-1.8,2.6-3.14,1.6l-59.7-42.29c-.53-.4-.87-1-.87-1.6v-70.98c0-1.13.87-2,2-2h59.7c1.13,0,2,.87,2,2Z"/>
  <path id="US_Virgin_Islands" class="st0" d="M855.06,700.95h10.07c1.67,0,2.6,1.93,1.53,3.27l-8.47,10.54c-1.07,1.33-.13,3.27,1.53,3.27h6.14c1.93,0,2.74-2.47,1.2-3.6l-13.21-9.87c-1.53-1.13-.73-3.6,1.2-3.6Z"/>
  <g id="Layer_4">
    <path class="st16" d="M919.08,808.72h216.1c1.7,0,3,1.3,3,3v26c0,1.7-1.3,3-3,3h-216.1c-1.7,0-3-1.3-3-3v-26c0-1.7,1.3-3,3-3Z"/>
    <path class="st10" d="M919.08,680.72h216.1c1.7,0,3,1.3,3,3v26c0,1.7-1.3,3-3,3h-216.1c-1.7,0-3-1.3-3-3v-26c0-1.7,1.3-3,3-3Z"/>
    <path class="st17" d="M919.08,776.72h216.1c1.7,0,3,1.3,3,3v26c0,1.7-1.3,3-3,3h-216.1c-1.7,0-3-1.3-3-3v-26c0-1.7,1.3-3,3-3Z"/>
    <path class="st13" d="M919.08,712.72h216.1c1.7,0,3,1.3,3,3v26c0,1.7-1.3,3-3,3h-216.1c-1.7,0-3-1.3-3-3v-26c0-1.7,1.3-3,3-3Z"/>
    <path class="st15" d="M919.08,840.72h216.1c1.7,0,3,1.3,3,3v26c0,1.7-1.3,3-3,3h-216.1c-1.7,0-3-1.3-3-3v-26c0-1.7,1.3-3,3-3Z"/>
    <path class="st11" d="M919.08,744.72h216.1c1.7,0,3,1.3,3,3v26c0,1.7-1.3,3-3,3h-216.1c-1.7,0-3-1.3-3-3v-26c0-1.7,1.3-3,3-3Z"/>
    <path class="st1" d="M919.08,872.72h216.1c1.7,0,3,1.3,3,3v26c0,1.7-1.3,3-3,3h-216.1c-1.7,0-3-1.3-3-3v-26c0-1.7,1.3-3,3-3Z"/>
    <path class="st3" d="M919.08,680.72h216.1c1.7,0,3,1.5,3,3.5v217c0,2-1.3,3.5-3,3.5h-216.1c-1.7,0-3-1.5-3-3.5v-217c0-2,1.3-3.5,3-3.5Z"/>
    <path class="st14" d="M926.58,688.32h90.2c1.7,0,3,1.3,3,3v10.6c0,1.7-1.3,3-3,3h-90.2c-1.7,0-3-1.3-3-3v-10.6c0-1.7,1.3-3,3-3Z"/>
    <text class="st5" transform="translate(923.59 703.19)"><tspan x="0" y="0">Lived here </tspan></text>
    <path class="st14" d="M927.18,720.52h117.9c1.7,0,3,1.3,3,3v10.6c0,1.7-1.3,3-3,3h-117.9c-1.7,0-3-1.3-3-3v-10.6c0-1.7,1.3-3,3-3Z"/>
    <text class="st5" transform="translate(924.14 735.31)"><tspan x="0" y="0">Stayed here </tspan></text>
    <path class="st14" d="M927.58,752.52h117.9c1.7,0,3,1.3,3,3v10.6c0,1.7-1.3,3-3,3h-117.9c-1.7,0-3-1.3-3-3v-10.6c0-1.7,1.3-3,3-3Z"/>
    <text class="st5" transform="translate(924.59 767.31)"><tspan x="0" y="0">Visited here </tspan></text>
    <path class="st14" d="M926.58,784.52h117.9c1.7,0,3,1.3,3,3v10.6c0,1.7-1.3,3-3,3h-117.9c-1.7,0-3-1.3-3-3v-10.6c0-1.7,1.3-3,3-3Z"/>
    <text class="st5" transform="translate(923.59 799.31)"><tspan x="0" y="0">Alighted here </tspan></text>
    <path class="st14" d="M927.58,816.52h117.9c1.7,0,3,1.3,3,3v10.6c0,1.7-1.3,3-3,3h-117.9c-1.7,0-3-1.3-3-3v-10.6c0-1.7,1.3-3,3-3Z"/>
    <text class="st5" transform="translate(924.59 831.31)"><tspan x="0" y="0">Passed here </tspan></text>
    <path class="st14" d="M927.58,848.52h165.5c1.7,0,3,1.3,3,3v10.6c0,1.7-1.3,3-3,3h-165.5c-1.7,0-3-1.3-3-3v-10.6c0-1.7,1.3-3,3-3Z"/>
    <text class="st5" transform="translate(924.59 863.31)"><tspan x="0" y="0">Want to be here</tspan></text>
    <path class="st14" d="M1071.48,688.92h53.4c1.7,0,3,1.3,3,3v10.6c0,1.7-1.3,3-3,3h-53.4c-1.7,0-3-1.3-3-3v-10.6c0-1.7,1.3-3,3-3Z"/>
    <text class="st5" transform="translate(1095.07 703.73)"><tspan x="0" y="0">5 pt </tspan></text>
    <path class="st14" d="M1071.48,719.92h53.4c1.7,0,3,1.3,3,3v10.6c0,1.7-1.3,3-3,3h-53.4c-1.7,0-3-1.3-3-3v-10.6c0-1.7,1.3-3,3-3Z"/>
    <text class="st5" transform="translate(1095.1 734.73)"><tspan x="0" y="0">4 pt </tspan></text>
    <path class="st14" d="M1072.48,751.92h53.4c1.7,0,3,1.3,3,3v10.6c0,1.7-1.3,3-3,3h-53.4c-1.7,0-3-1.3-3-3v-10.6c0-1.7,1.3-3,3-3Z"/>
    <text class="st5" transform="translate(1096.1 766.73)"><tspan x="0" y="0">3 pt </tspan></text>
    <path class="st14" d="M1072.48,783.92h53.4c1.7,0,3,1.3,3,3v10.6c0,1.7-1.3,3-3,3h-53.4c-1.7,0-3-1.3-3-3v-10.6c0-1.7,1.3-3,3-3Z"/>
    <text class="st5" transform="translate(1096.1 798.73)"><tspan x="0" y="0">2 pt </tspan></text>
    <path class="st14" d="M1072.48,815.92h53.4c1.7,0,3,1.3,3,3v10.6c0,1.7-1.3,3-3,3h-53.4c-1.7,0-3-1.3-3-3v-10.6c0-1.7,1.3-3,3-3Z"/>
    <text class="st5" transform="translate(1096.1 830.73)"><tspan x="0" y="0">1 pt </tspan></text>
    <path class="st14" d="M1072.48,847.92h53.4c1.7,0,3,1.3,3,3v10.6c0,1.7-1.3,3-3,3h-53.4c-1.7,0-3-1.3-3-3v-10.6c0-1.7,1.3-3,3-3Z"/>
    <text class="st5" transform="translate(1096.1 862.73)"><tspan x="0" y="0">0 pt </tspan></text>
    <path class="st14" d="M927.98,878.42h165.5c1.7,0,3,1.3,3,3v10.6c0,1.7-1.3,3-3,3h-165.5c-1.7,0-3-1.3-3-3v-10.6c0-1.7,1.3-3,3-3Z"/>
    <text class="st5" transform="translate(924.99 893.19)"><tspan x="0" y="0">Never been here </tspan></text>
    <path class="st14" d="M1072.88,877.82h53.4c1.7,0,3,1.3,3,3v10.6c0,1.7-1.3,3-3,3h-53.4c-1.7,0-3-1.3-3-3v-10.6c0-1.7,1.3-3,3-3Z"/>
    <text class="st5" transform="translate(1096.5 892.61)"><tspan x="0" y="0">0 pt </tspan></text>
  </g>
  <g id="Texts">
    <rect class="st14" x="528.79" y="381.55" width="38.89" height="21.68"/>
    <text class="st4" transform="translate(535.51 398.24)"><tspan x="0" y="0">MN</tspan></text>
    <rect class="st14" x="534.8" y="452.59" width="38.89" height="21.68"/>
    <text class="st4" transform="translate(545.97 469.29)"><tspan x="0" y="0">IA</tspan></text>
    <rect class="st14" x="548.14" y="514.63" width="38.89" height="21.68"/>
    <text class="st4" transform="translate(554.57 531.33)"><tspan x="0" y="0">MO</tspan></text>
    <rect class="st14" x="554.14" y="578.01" width="38.89" height="21.68"/>
    <text class="st4" transform="translate(562.06 594.7)"><tspan x="0" y="0">AR</tspan></text>
    <rect class="st14" x="554.14" y="638.04" width="38.89" height="21.68"/>
    <text class="st4" transform="translate(562.99 654.74)"><tspan x="0" y="0">LA</tspan></text>
    <rect class="st14" x="594.83" y="600.02" width="38.89" height="21.68"/>
    <text class="st4" transform="translate(602.26 616.72)"><tspan x="0" y="0">MS</tspan></text>
    <rect class="st14" x="640.86" y="600.02" width="38.89" height="21.68"/>
    <text class="st4" transform="translate(649.71 616.72)"><tspan x="0" y="0">AL</tspan></text>
    <rect class="st14" x="693.56" y="595.35" width="38.89" height="21.68"/>
    <text class="st4" transform="translate(700.9 612.05)"><tspan x="0" y="0">GA</tspan></text>
    <rect class="st14" x="740.26" y="581.34" width="38.89" height="21.68"/>
    <text class="st4" transform="translate(748.43 598.04)"><tspan x="0" y="0">SC</tspan></text>
    <rect class="st14" x="732.92" y="546.65" width="38.89" height="21.68"/>
    <text class="st4" transform="translate(740.35 563.35)"><tspan x="0" y="0">NC</tspan></text>
    <rect class="st14" x="746.26" y="514.63" width="38.89" height="21.68"/>
    <text class="st4" transform="translate(754.43 531.33)"><tspan x="0" y="0">VA</tspan></text>
    <rect class="st14" x="644.2" y="546.65" width="38.89" height="21.68"/>
    <text class="st4" transform="translate(652.55 563.35)"><tspan x="0" y="0">TN</tspan></text>
    <rect class="st14" x="640.86" y="521.97" width="38.89" height="21.68"/>
    <text class="st4" transform="translate(649.37 538.67)"><tspan x="0" y="0">KY</tspan></text>
    <rect class="st14" x="628.86" y="478.61" width="38.89" height="21.68"/>
    <text class="st4" transform="translate(639.71 495.31)"><tspan x="0" y="0">IN</tspan></text>
    <rect class="st14" x="590.83" y="478.61" width="38.89" height="21.68"/>
    <text class="st4" transform="translate(602.93 495.31)"><tspan x="0" y="0">IL</tspan></text>
    <rect class="st14" x="668.88" y="479.28" width="38.89" height="21.68"/>
    <text class="st4" transform="translate(675.9 495.97)"><tspan x="0" y="0">OH</tspan></text>
    <rect class="st14" x="704.24" y="493.29" width="38.89" height="21.68"/>
    <text class="st7" transform="translate(712.28 509.26)"><tspan x="0" y="0">WV</tspan></text>
    <rect class="st14" x="740.26" y="481.95" width="38.89" height="21.68"/>
    <text class="st7" transform="translate(748.68 497.91)"><tspan x="0" y="0">MD</tspan></text>
    <rect class="st14" x="733.59" y="452.59" width="38.89" height="21.68"/>
    <text class="st4" transform="translate(741.93 469.29)"><tspan x="0" y="0">PA</tspan></text>
    <rect class="st14" x="586.83" y="402.56" width="38.89" height="21.68"/>
    <text class="st4" transform="translate(596.25 419.26)"><tspan x="0" y="0">WI</tspan></text>
    <rect class="st14" x="649.54" y="402.56" width="38.89" height="21.68"/>
    <text class="st4" transform="translate(659.8 419.26)"><tspan x="0" y="0">MI</tspan></text>
    <rect class="st14" x="756.93" y="396.56" width="38.89" height="21.68"/>
    <text class="st4" transform="translate(765.29 413.26)"><tspan x="0" y="0">NY</tspan></text>
    <rect class="st14" x="834.98" y="357.87" width="38.89" height="21.68"/>
    <text class="st4" transform="translate(842.41 374.57)"><tspan x="0" y="0">ME</tspan></text>
    <rect class="st14" x="808.97" y="411.24" width="38.89" height="21.68"/>
    <text class="st4" transform="translate(815.98 427.93)"><tspan x="0" y="0">MA</tspan></text>
    <rect class="st14" x="707.57" y="675.4" width="38.89" height="21.68"/>
    <text class="st4" transform="translate(717.34 692.1)"><tspan x="0" y="0">FL</tspan></text>
    <rect class="st14" x="465.42" y="640.71" width="38.89" height="21.68"/>
    <text class="st4" transform="translate(475.02 657.41)"><tspan x="0" y="0">TX</tspan></text>
    <rect class="st14" x="465.42" y="562.66" width="38.89" height="21.68"/>
    <text class="st4" transform="translate(472.59 579.36)"><tspan x="0" y="0">OK</tspan></text>
    <rect class="st14" x="465.42" y="510.63" width="38.89" height="21.68"/>
    <text class="st4" transform="translate(473.59 527.33)"><tspan x="0" y="0">KS</tspan></text>
    <rect class="st14" x="455.41" y="460.6" width="38.89" height="21.68"/>
    <text class="st4" transform="translate(463.43 477.3)"><tspan x="0" y="0">NE</tspan></text>
    <rect class="st14" x="446.08" y="411.24" width="38.89" height="21.68"/>
    <text class="st4" transform="translate(454.25 427.93)"><tspan x="0" y="0">SD</tspan></text>
    <rect class="st14" x="446.08" y="361.2" width="38.89" height="21.68"/>
    <text class="st4" transform="translate(453.51 377.9)"><tspan x="0" y="0">ND</tspan></text>
    <rect class="st14" x="346.01" y="365.21" width="38.89" height="21.68"/>
    <text class="st4" transform="translate(353.78 381.9)"><tspan x="0" y="0">MT</tspan></text>
    <rect class="st14" x="356.69" y="429.25" width="38.89" height="21.68"/>
    <text class="st4" transform="translate(363.61 445.94)"><tspan x="0" y="0">WY</tspan></text>
    <rect class="st14" x="374.03" y="499.29" width="38.89" height="21.68"/>
    <text class="st4" transform="translate(381.2 515.99)"><tspan x="0" y="0">CO</tspan></text>
    <rect class="st14" x="365.36" y="581.34" width="38.89" height="21.68"/>
    <text class="st4" transform="translate(372.05 598.04)"><tspan x="0" y="0">NM</tspan></text>
    <rect class="st14" x="299.32" y="581.34" width="38.89" height="21.68"/>
    <text class="st4" transform="translate(307.83 598.04)"><tspan x="0" y="0">AZ</tspan></text>
    <rect class="st14" x="299.32" y="488.62" width="38.89" height="21.68"/>
    <text class="st4" transform="translate(307.67 505.31)"><tspan x="0" y="0">UT</tspan></text>
    <rect class="st14" x="281.97" y="413.24" width="38.89" height="21.68"/>
    <text class="st4" transform="translate(292.98 429.93)"><tspan x="0" y="0">ID</tspan></text>
    <rect class="st14" x="241.28" y="477.94" width="38.89" height="21.68"/>
    <text class="st4" transform="translate(249.13 494.64)"><tspan x="0" y="0">NV</tspan></text>
    <rect class="st14" x="221.94" y="551.99" width="38.89" height="21.68"/>
    <text class="st4" transform="translate(229.69 568.69)"><tspan x="0" y="0">CA</tspan></text>
    <rect class="st14" x="209.26" y="406.57" width="38.89" height="21.68"/>
    <text class="st4" transform="translate(216.6 423.26)"><tspan x="0" y="0">OR</tspan></text>
    <rect class="st14" x="202.59" y="355.2" width="38.89" height="21.68"/>
    <text class="st4" transform="translate(208.76 371.9)"><tspan x="0" y="0">WA</tspan></text>
    <rect class="st14" x="243.02" y="733.77" width="38.89" height="21.68"/>
    <text class="st4" transform="translate(250.75 750.41)"><tspan x="0" y="0">AK</tspan></text>
    <rect class="st14" x="369.29" y="746.58" width="38.89" height="21.68"/>
    <text class="st4" transform="translate(380.13 763.25)"><tspan x="0" y="0">HI</tspan></text>
    <rect class="st14" x="775.61" y="454.6" width="38.89" height="21.68"/>
    <text class="st8" transform="translate(787.05 469.84)"><tspan x="0" y="0">NJ</tspan></text>
    <rect class="st14" x="773.81" y="477.21" width="38.89" height="14.68"/>
    <text class="st9" transform="translate(787.59 487.5)"><tspan x="0" y="0">DE</tspan></text>
    <rect class="st14" x="770.68" y="497.56" width="21.01" height="11.74"/>
    <text class="st9" transform="translate(775.29 506.34)"><tspan x="0" y="0">DC</tspan></text>
    <rect class="st14" x="804.43" y="431.91" width="21.01" height="11.74"/>
    <text class="st9" transform="translate(809.47 440.66)"><tspan x="0" y="0">CT</tspan></text>
    <rect class="st14" x="821.78" y="431.91" width="21.01" height="11.74"/>
    <text class="st9" transform="translate(828.15 440.66)"><tspan x="0" y="0">RI</tspan></text>
    <rect class="st14" x="803.1" y="386.55" width="21.01" height="11.74"/>
    <text class="st9" transform="translate(808.34 395.3)"><tspan x="0" y="0">VT</tspan></text>
    <rect class="st14" x="819.77" y="386.55" width="21.01" height="11.74"/>
    <text class="st9" transform="translate(824.19 395.3)"><tspan x="0" y="0">NH</tspan></text>
    <rect class="st14" x="839.19" y="753.31" width="38.89" height="21.68"/>
    <text class="st8" transform="translate(850.31 768.54)"><tspan x="0" y="0">AS</tspan></text>
    <rect class="st14" x="809.17" y="753.31" width="38.89" height="21.68"/>
    <text class="st8" transform="translate(819.61 768.54)"><tspan x="0" y="0">MP</tspan></text>
    <rect class="st14" x="775.15" y="753.31" width="38.89" height="21.68"/>
    <text class="st8" transform="translate(785.28 768.54)"><tspan x="0" y="0">GU</tspan></text>
    <rect class="st14" x="839.19" y="669.93" width="38.89" height="21.68"/>
    <text class="st8" transform="translate(852.62 685.15)"><tspan x="0" y="0">VI</tspan></text>
    <rect class="st14" x="787.15" y="669.93" width="38.89" height="21.68"/>
    <text class="st8" transform="translate(798.28 685.15)"><tspan x="0" y="0">PR</tspan></text>
  </g>
  <text class="st6" transform="translate(1019.78 105.23)"><tspan x="0" y="0">US Level 0</tspan></text>
  <path id="Washington1" data-name="Washington" class="st0" d="M174.22,274.51h144.43c1.85,0,3.26,1.4,3.26,3.23v63.55c0,1.83-1.41,3.23-3.26,3.23h-144.43c-1.85,0-3.26-1.4-3.26-3.23v-63.55c0-1.83,1.41-3.23,3.26-3.23Z"/>
  <path id="Washington2" data-name="Washington" class="st0" d="M322.95,274.51h46.51c.59,0,1.05,1.4,1.05,3.23v63.55c0,1.83-.45,3.23-1.05,3.23h-46.51c-.59,0-1.05-1.4-1.05-3.23v-63.55c0-1.83.45-3.23,1.05-3.23Z"/>
  <path id="Washington3" data-name="Washington" class="st0" d="M372.38,274.51h82.76c1.06,0,1.87,1.4,1.87,3.23v63.55c0,1.83-.81,3.23-1.87,3.23h-82.76c-1.06,0-1.87-1.4-1.87-3.23v-63.55c0-1.83.81-3.23,1.87-3.23Z"/>
  <path class="st0" d="M537.75,248.25"/>
  <path class="st2" d="M457,277.5v64.05c0,1.65,1.34,2.99,2.99,2.99h73.96c1.65,0,2.99-1.34,2.99-2.99v-52.27c0-1.65-1.34-2.99-2.99-2.99h-19.25c-1.65,0-2.99-1.34-2.99-2.99v-5.8c0-1.65-1.34-2.99-2.99-2.99h-48.74c-1.65,0-2.99,1.34-2.99,2.99Z"/>
  <path class="st2" d="M536.93,289.26v52.29c0,1.64,1.33,2.98,2.98,2.98h109.43c1.64,0,2.98,1.33,2.98,2.98v15.74c0,1.64,1.33,2.97,2.97,2.98l108.44.32c1.65,0,2.99-1.33,2.99-2.98v-74.3c0-1.64-1.33-2.98-2.98-2.98h-223.83c-1.64,0-2.98,1.33-2.98,2.98Z"/>
  <path class="st2" d="M769.74,366.33h66.15c1.67,0,3.03-1.36,3.03-3.03v-22.41c0-1.67,1.36-3.03,3.03-3.03h7.64c1.67,0,3.03-1.36,3.03-3.03v-109.36c0-1.67-1.36-3.03-3.03-3.03h-79.85c-1.67,0-3.03,1.36-3.03,3.03v137.83c0,1.67,1.36,3.03,3.03,3.03Z"/>
  <path class="st2" d="M852.62,308.17v26.67c0,1.67,1.35,3.02,3.02,3.02h9.28c1.67,0,3.02,1.35,3.02,3.02v19.1c0,1.67,1.35,3.02,3.02,3.02h15.78c1.67,0,3.02-1.35,3.02-3.02v-51.8c0-1.67-1.35-3.02-3.02-3.02h-31.09c-1.67,0-3.02,1.35-3.02,3.02Z"/>
  <path class="st2" d="M879.04,365.96v7.77c0,1.64,1.33,2.97,2.97,2.97h22.89c1.64,0,2.97-1.33,2.97-2.97v-32.91c0-1.64-1.33-2.97-2.97-2.97h-7.55c-2.7,0-4-3.32-2.01-5.15l6.95-6.41c1.99-1.83.69-5.15-2.01-5.15h-6.99c-1.62,0-2.94,1.3-2.97,2.93l-.52,35.99c-.02,1.62-1.35,2.93-2.97,2.93h-4.82c-1.64,0-2.97,1.33-2.97,2.97Z"/>
  <path class="st2" d="M852.62,224.48v32.24c0,1.13.91,2.04,2.04,2.04h46.34c1.13,0,2.04.91,2.04,2.04v15.79c0,1.93-2.44,2.78-3.64,1.26l-43.14-54.64c-1.2-1.52-3.64-.67-3.64,1.26Z"/>
  <path class="st2" d="M509.77,274.51h-50.83c-1.07,0-1.94-.87-1.94-1.94v-50.79c0-.62-.3-1.21-.8-1.57l-28.63-20.82c-1.52-1.11-.74-3.51,1.14-3.51h81.06c1.07,0,1.94.87,1.94,1.94v74.76c0,1.07-.87,1.94-1.94,1.94Z"/>
  <path class="st2" d="M271.08,274.51h183.29c1.45,0,2.63-1.18,2.63-2.63v-49.76c0-.84-.4-1.63-1.08-2.13l-32.49-23.62c-.45-.33-.99-.5-1.55-.5h-183.9c-1.91,0-3.18,1.97-2.4,3.71l33.1,73.38c.43.94,1.36,1.55,2.4,1.55Z"/>
  <path class="st2" d="M172.98,274.51h93.27c1.47,0,2.44-1.51,1.84-2.85l-33.65-74.6c-.33-.72-1.05-1.19-1.84-1.19h-59.62c-1.12,0-2.02.9-2.02,2.02v74.6c0,1.12.9,2.02,2.02,2.02Z"/>
  <path class="st2" d="M111.86,274.51h57.05c1.13,0,2.05-.92,2.05-2.05v-74.54c0-1.13-.92-2.05-2.05-2.05h-78.4c-.93,0-1.75.63-1.98,1.53l-22.48,86.32c-.34,1.3.64,2.56,1.98,2.56h39.93c1.15,0,2.08-.95,2.05-2.1l-.19-7.57c-.03-1.15.9-2.1,2.05-2.1Z"/>
  <text class="st4" transform="translate(231.02 317.48)"><tspan x="0" y="0">BC</tspan></text>
  <text class="st4" transform="translate(335.93 317.77)"><tspan x="0" y="0">AB</tspan></text>
  <text class="st4" transform="translate(400.23 317.77)"><tspan x="0" y="0">SK</tspan></text>
  <text class="st4" transform="translate(480.6 317.77)"><tspan x="0" y="0">MB</tspan></text>
  <text class="st4" transform="translate(653.59 326.41)"><tspan x="0" y="0">ON</tspan></text>
  <text class="st4" transform="translate(798.55 302.56)"><tspan x="0" y="0">QC</tspan></text>
  <text class="st4" transform="translate(859.4 331.95)"><tspan x="0" y="0">NB</tspan></text>
</svg>